<svg id="scheme" xmlns="http://www.w3.org/2000/svg" width="100%" height="100%" viewBox="0 0 800 336.45">
    <defs>
        <style>
            .cls-1, .cls-3 {fill: #868789;}
            .cls-2 {fill: #fff;}
            .cls-3, .cls-4 {fill-rule: evenodd}
            .cls-4 {fill: #8aa033;}
        </style>
    </defs>
    <g>
        <path class="cls-1" d="M398,320.29h-82.6V281H398Zm-81.46-1.15H396.8v-37H316.49Z"/>
        <path class="cls-1"
              d="M440.12,247.93H273.17a9,9,0,0,1-9-9V108.37a9,9,0,0,1,9-9h167a9,9,0,0,1,9,9V238.92A9,9,0,0,1,440.12,247.93ZM273.17,100.5a7.88,7.88,0,0,0-7.87,7.87V238.92a7.88,7.88,0,0,0,7.87,7.86h167a7.88,7.88,0,0,0,7.87-7.86V108.37a7.88,7.88,0,0,0-7.87-7.87Z"/>
        <rect class="cls-1" x="167.18" y="173.36" width="92.94" height="0.57"/>
        <polygon class="cls-1" points="259.28 176.5 264.24 173.64 259.28 170.78 259.28 176.5"/>
        <rect class="cls-1" x="356.36" y="252.46" width="0.57" height="28.24"/>
        <polygon class="cls-1" points="353.79 253.3 356.65 248.34 359.51 253.3 353.79 253.3"/>
        <path class="cls-2"
              d="M319.82,176.43a3.44,3.44,0,0,1-1-2.5c0-.23,0-.59,0-1.1s0-.88,0-1.12a3.43,3.43,0,0,1,1-2.48,3.68,3.68,0,0,1,2.65-.89,4.46,4.46,0,0,1,1.93.38,3.09,3.09,0,0,1,1.28,1,2.65,2.65,0,0,1,.47,1.48v0a.19.19,0,0,1-.08.17.24.24,0,0,1-.18.07h-1.2a.32.32,0,0,1-.23-.07.44.44,0,0,1-.12-.24,1.76,1.76,0,0,0-.65-1.09,2.12,2.12,0,0,0-1.22-.32c-1.19,0-1.81.67-1.86,2,0,.23,0,.57,0,1s0,.82,0,1.06c.05,1.32.67,2,1.86,2a2.11,2.11,0,0,0,1.21-.32,1.76,1.76,0,0,0,.66-1.09.49.49,0,0,1,.12-.24.32.32,0,0,1,.23-.07h1.2a.35.35,0,0,1,.2.07.23.23,0,0,1,.06.19,2.65,2.65,0,0,1-.47,1.48,3.09,3.09,0,0,1-1.28,1,4.46,4.46,0,0,1-1.93.38A3.77,3.77,0,0,1,319.82,176.43Z"/>
        <path class="cls-2"
              d="M327.58,177.09a.32.32,0,0,1-.08-.21V171a.34.34,0,0,1,.08-.23.29.29,0,0,1,.22-.09h1a.29.29,0,0,1,.22.09.3.3,0,0,1,.09.23v.51a2.1,2.1,0,0,1,1.79-.83h.52a.29.29,0,0,1,.22.08.29.29,0,0,1,.08.22v.91a.28.28,0,0,1-.08.21.27.27,0,0,1-.22.09h-1a1.17,1.17,0,0,0-1.26,1.26v3.41a.32.32,0,0,1-.08.21.29.29,0,0,1-.22.09h-1.1A.29.29,0,0,1,327.58,177.09Z"/>
        <path class="cls-2"
              d="M333.7,179.47a.25.25,0,0,1-.08-.17.53.53,0,0,1,.05-.2l1-2.31-2.39-5.64a.35.35,0,0,1,0-.17.3.3,0,0,1,.08-.2.27.27,0,0,1,.19-.08h1a.35.35,0,0,1,.33.24L335.5,175l1.68-4.06a.39.39,0,0,1,.35-.24h1a.26.26,0,0,1,.19.08.23.23,0,0,1,.07.17.39.39,0,0,1-.05.2l-3.52,8.16a.36.36,0,0,1-.35.23h-1A.27.27,0,0,1,333.7,179.47Z"/>
        <path class="cls-2"
              d="M340,179.46a.29.29,0,0,1-.08-.21V171a.28.28,0,0,1,.3-.3h1a.32.32,0,0,1,.23.09.32.32,0,0,1,.08.21v.5a2.29,2.29,0,0,1,2-.92,2.38,2.38,0,0,1,1.93.79,3.34,3.34,0,0,1,.72,2.12c0,.1,0,.25,0,.45s0,.35,0,.45a3.31,3.31,0,0,1-.71,2.11,2.38,2.38,0,0,1-1.94.8,2.22,2.22,0,0,1-1.9-.88v2.83a.28.28,0,0,1-.3.29h-1.08A.29.29,0,0,1,340,179.46Zm4.45-5.15a3.56,3.56,0,0,0,0-.37,3.66,3.66,0,0,0,0-.37c-.06-1.1-.53-1.65-1.42-1.65a1.27,1.27,0,0,0-1.06.46,1.93,1.93,0,0,0-.37,1.13c0,.1,0,.25,0,.47s0,.38,0,.48a1.67,1.67,0,0,0,.38,1.06A1.29,1.29,0,0,0,343,176C343.89,176,344.36,175.41,344.42,174.31Z"/>
        <path class="cls-2"
              d="M347.61,177.09a.29.29,0,0,1-.09-.21V171a.3.3,0,0,1,.09-.23.26.26,0,0,1,.21-.09h1a.28.28,0,0,1,.22.09.3.3,0,0,1,.09.23v.51a2.11,2.11,0,0,1,1.79-.83h.53a.29.29,0,0,1,.21.08.29.29,0,0,1,.09.22v.91a.29.29,0,0,1-.09.21.26.26,0,0,1-.21.09h-1a1.23,1.23,0,0,0-.92.34,1.25,1.25,0,0,0-.33.92v3.41a.31.31,0,0,1-.3.3h-1.11A.26.26,0,0,1,347.61,177.09Z"/>
        <path class="cls-2"
              d="M353.26,176.56a2.9,2.9,0,0,1-.86-2.07v-1.1a2.88,2.88,0,0,1,.87-2.06,3.75,3.75,0,0,1,4.5,0,2.88,2.88,0,0,1,.87,2.06c0,.1,0,.29,0,.55s0,.45,0,.55a2.9,2.9,0,0,1-.86,2.07,3.19,3.19,0,0,1-2.25.74A3.23,3.23,0,0,1,353.26,176.56Zm3.28-.92a1.92,1.92,0,0,0,.38-1.21c0-.09,0-.25,0-.49s0-.4,0-.48a1.93,1.93,0,0,0-.39-1.22,1.24,1.24,0,0,0-1-.42,1.29,1.29,0,0,0-1,.42,1.87,1.87,0,0,0-.38,1.22v1a1.86,1.86,0,0,0,.38,1.21,1.32,1.32,0,0,0,1,.41A1.27,1.27,0,0,0,356.54,175.64Z"/>
        <path class="cls-2"
              d="M360.92,176.81l-1.47-8v-.1a.24.24,0,0,1,.07-.18.26.26,0,0,1,.19-.08h1.12a.35.35,0,0,1,.23.06.27.27,0,0,1,.1.19l1,5.6,1.11-3.61a.43.43,0,0,1,.41-.31h.68a.33.33,0,0,1,.26.1.41.41,0,0,1,.14.21l1.12,3.61,1-5.6c0-.16.14-.25.35-.25h1.12a.25.25,0,0,1,.18.08.29.29,0,0,1,.07.18.25.25,0,0,1,0,.1l-1.47,8a.46.46,0,0,1-.15.27.42.42,0,0,1-.3.1h-.85a.43.43,0,0,1-.28-.09.44.44,0,0,1-.15-.22l-1.4-4.14-1.39,4.14a.43.43,0,0,1-.44.31h-.84A.43.43,0,0,1,360.92,176.81Z"/>
        <path class="cls-2"
              d="M370.4,177.05a2.2,2.2,0,0,1-.84-.69,1.71,1.71,0,0,1,.38-2.33,4.09,4.09,0,0,1,1.88-.71l1.71-.25v-.26a1.1,1.1,0,0,0-.27-.81,1.24,1.24,0,0,0-.88-.28,1.29,1.29,0,0,0-.66.15,2.32,2.32,0,0,0-.4.31l-.21.2a.18.18,0,0,1-.18.15h-1a.29.29,0,0,1-.2-.07.28.28,0,0,1-.08-.2,1.28,1.28,0,0,1,.31-.7,2.38,2.38,0,0,1,.9-.69,3.57,3.57,0,0,1,1.51-.29,3,3,0,0,1,2.14.66,2.31,2.31,0,0,1,.67,1.73v3.91a.32.32,0,0,1-.08.21.28.28,0,0,1-.22.09h-1a.31.31,0,0,1-.3-.3v-.49a2,2,0,0,1-.77.66,2.73,2.73,0,0,1-1.25.25A2.63,2.63,0,0,1,370.4,177.05Zm2.71-1.39a1.79,1.79,0,0,0,.43-1.3v-.24l-1.24.19c-1,.15-1.43.47-1.43,1a.7.7,0,0,0,.33.62,1.44,1.44,0,0,0,.79.22A1.5,1.5,0,0,0,373.11,175.66Z"/>
        <path class="cls-2"
              d="M376.91,177.09a.29.29,0,0,1-.09-.21v-8.24a.28.28,0,0,1,.09-.22.29.29,0,0,1,.21-.08h1a.28.28,0,0,1,.3.3v8.24a.32.32,0,0,1-.08.21.28.28,0,0,1-.22.09h-1A.26.26,0,0,1,376.91,177.09Z"/>
        <path class="cls-2"
              d="M380.22,177.09a.29.29,0,0,1-.09-.21v-8.24a.28.28,0,0,1,.09-.22.32.32,0,0,1,.21-.08h1a.29.29,0,0,1,.22.08.27.27,0,0,1,.08.22v8.24a.28.28,0,0,1-.08.21.27.27,0,0,1-.22.09h-1A.29.29,0,0,1,380.22,177.09Z"/>
        <path class="cls-2"
              d="M384,176.51a3.19,3.19,0,0,1-.86-2.27l0-.31a3.5,3.5,0,0,1,.82-2.45,3.31,3.31,0,0,1,4.54,0,3.41,3.41,0,0,1,.81,2.39v.26a.29.29,0,0,1-.09.21.29.29,0,0,1-.22.09h-4.14v.1a2,2,0,0,0,.38,1.15,1.18,1.18,0,0,0,1,.45,1.42,1.42,0,0,0,1.16-.57.65.65,0,0,1,.17-.17.51.51,0,0,1,.21,0h1.1a.31.31,0,0,1,.19.06.19.19,0,0,1,.08.18,1.18,1.18,0,0,1-.35.7,2.87,2.87,0,0,1-1,.7,3.66,3.66,0,0,1-1.53.3A3,3,0,0,1,384,176.51Zm3.57-3.14v0a1.73,1.73,0,0,0-.37-1.17,1.34,1.34,0,0,0-2,0,1.78,1.78,0,0,0-.36,1.17v0Z"/>
        <path class="cls-2"
              d="M391.83,176.59a2.43,2.43,0,0,1-.57-1.74V172h-1a.26.26,0,0,1-.21-.09.29.29,0,0,1-.09-.21V171a.29.29,0,0,1,.09-.21.26.26,0,0,1,.21-.09h1v-2.06a.28.28,0,0,1,.09-.22.32.32,0,0,1,.21-.08h1a.29.29,0,0,1,.22.08.27.27,0,0,1,.08.22v2.06h1.56a.31.31,0,0,1,.3.3v.74a.31.31,0,0,1-.3.3h-1.56v2.67a1.38,1.38,0,0,0,.19.81.67.67,0,0,0,.61.28h.87a.27.27,0,0,1,.22.08.29.29,0,0,1,.08.22v.78a.32.32,0,0,1-.08.21.28.28,0,0,1-.22.09h-1A2.3,2.3,0,0,1,391.83,176.59Z"/>
        <path class="cls-1"
              d="M339.84,295.53a3.63,3.63,0,0,1-.93-2.47c0-.23,0-.59,0-1.1s0-.89,0-1.12a3.61,3.61,0,0,1,.93-2.47,3.31,3.31,0,0,1,2.52-.9,4.15,4.15,0,0,1,1.88.39,2.79,2.79,0,0,1,1.16,1,2.76,2.76,0,0,1,.43,1.35.19.19,0,0,1-.08.18.26.26,0,0,1-.19.07h-.62a.3.3,0,0,1-.2-.06.42.42,0,0,1-.12-.21,2.12,2.12,0,0,0-.76-1.35,2.64,2.64,0,0,0-1.5-.38c-1.45,0-2.2.8-2.26,2.41,0,.23,0,.57,0,1s0,.81,0,1.05c.06,1.61.81,2.41,2.26,2.41a2.55,2.55,0,0,0,1.49-.39,2.06,2.06,0,0,0,.77-1.33.42.42,0,0,1,.12-.21.3.3,0,0,1,.2-.06h.62a.31.31,0,0,1,.19.06.22.22,0,0,1,.08.18,2.76,2.76,0,0,1-.43,1.36,2.86,2.86,0,0,1-1.16,1,4.15,4.15,0,0,1-1.88.39A3.31,3.31,0,0,1,339.84,295.53Z"/>
        <path class="cls-1"
              d="M347.88,295.66a3,3,0,0,1-.79-2.06v-1.07a3,3,0,0,1,.8-2,3.25,3.25,0,0,1,4.2,0,3,3,0,0,1,.8,2,5,5,0,0,1,0,.54,4.84,4.84,0,0,1,0,.53,3,3,0,0,1-.79,2.06,3.28,3.28,0,0,1-4.22,0Zm3.38-.67a2.21,2.21,0,0,0,.5-1.45c0-.08,0-.24,0-.47s0-.39,0-.47a2.19,2.19,0,0,0-.5-1.45,1.66,1.66,0,0,0-1.27-.51,1.62,1.62,0,0,0-1.26.51,2.2,2.2,0,0,0-.51,1.45v.94a2.22,2.22,0,0,0,.51,1.45,1.62,1.62,0,0,0,1.26.51A1.66,1.66,0,0,0,351.26,295Z"/>
        <path class="cls-1"
              d="M354.57,296.23a.28.28,0,0,1-.08-.21v-5.9a.27.27,0,0,1,.28-.29h.54a.29.29,0,0,1,.21.08.28.28,0,0,1,.07.21v.55a2.55,2.55,0,0,1,.87-.71,2.67,2.67,0,0,1,1.23-.25,2.31,2.31,0,0,1,1.85.76,3,3,0,0,1,.66,2V296a.32.32,0,0,1-.08.21.28.28,0,0,1-.2.08h-.58a.27.27,0,0,1-.28-.29v-3.45a2,2,0,0,0-.44-1.39,1.54,1.54,0,0,0-1.24-.5,1.69,1.69,0,0,0-1.28.5,2,2,0,0,0-.47,1.39V296a.32.32,0,0,1-.08.21.28.28,0,0,1-.2.08h-.58A.28.28,0,0,1,354.57,296.23Z"/>
        <path class="cls-1"
              d="M362.64,296.23a.29.29,0,0,1-.09-.21v-5.23h-1.07a.27.27,0,0,1-.2-.07.24.24,0,0,1-.08-.2v-.4a.27.27,0,0,1,.28-.29h1.07v-.62a2.27,2.27,0,0,1,.5-1.56,2,2,0,0,1,1.61-.56h1.87a.28.28,0,0,1,.2.08.31.31,0,0,1,.07.21v.4a.24.24,0,0,1-.27.27h-1.85a.92.92,0,0,0-.79.3,1.54,1.54,0,0,0-.23.92v.56h2.87a.28.28,0,0,1,.2.08.31.31,0,0,1,.07.21V296a.31.31,0,0,1-.07.21.28.28,0,0,1-.2.08H366a.27.27,0,0,1-.29-.29v-5.23h-2V296a.27.27,0,0,1-.28.29h-.54A.28.28,0,0,1,362.64,296.23Z"/>
        <path class="cls-1"
              d="M369.64,298.7a2.24,2.24,0,0,1-.88-.8,1.63,1.63,0,0,1-.25-.77.3.3,0,0,1,.08-.2.32.32,0,0,1,.2-.08h.55a.29.29,0,0,1,.19.06.42.42,0,0,1,.12.21,1.49,1.49,0,0,0,1.58,1,2,2,0,0,0,1.39-.4,1.83,1.83,0,0,0,.44-1.4v-.86a2.42,2.42,0,0,1-2,.92,2.34,2.34,0,0,1-2-.85,3.64,3.64,0,0,1-.69-2.14v-.69a3.66,3.66,0,0,1,.69-2.13,2.34,2.34,0,0,1,2-.85,2.42,2.42,0,0,1,2,1v-.54a.32.32,0,0,1,.08-.21.26.26,0,0,1,.21-.09h.53a.29.29,0,0,1,.21.09.32.32,0,0,1,.08.21v6a2.56,2.56,0,0,1-2.9,2.88A3.41,3.41,0,0,1,369.64,298.7Zm2.94-3.87a2.27,2.27,0,0,0,.48-1.36,3.74,3.74,0,0,0,0-.44,3.32,3.32,0,0,0,0-.42,2.3,2.3,0,0,0-.48-1.37,1.57,1.57,0,0,0-1.31-.56,1.5,1.5,0,0,0-1.3.56,2.64,2.64,0,0,0-.44,1.47v.66a2.6,2.6,0,0,0,.44,1.46,1.48,1.48,0,0,0,1.3.57A1.55,1.55,0,0,0,372.58,294.83Z"/>
        <path class="cls-1"
              d="M326.41,312.62a3.6,3.6,0,0,1-.9-1.87,16.71,16.71,0,0,1-.27-3.35,16.53,16.53,0,0,1,.27-3.34,3.64,3.64,0,0,1,.9-1.87,2.37,2.37,0,0,1,1.7-.6.25.25,0,0,1,.21.08.28.28,0,0,1,.08.2v.41a.29.29,0,0,1-.07.2.25.25,0,0,1-.18.08A1.44,1.44,0,0,0,327,303a3.21,3.21,0,0,0-.57,1.5,24.23,24.23,0,0,0,0,5.73,3.26,3.26,0,0,0,.57,1.51,1.44,1.44,0,0,0,1.11.48.22.22,0,0,1,.18.08.26.26,0,0,1,.07.19v.41a.3.3,0,0,1-.08.21.29.29,0,0,1-.21.08A2.33,2.33,0,0,1,326.41,312.62Z"/>
        <path class="cls-1"
              d="M330.57,311.17a.43.43,0,0,1-.14-.23l-1.77-5.78,0-.13a.24.24,0,0,1,.07-.18.26.26,0,0,1,.19-.08h.51a.32.32,0,0,1,.2.07.27.27,0,0,1,.1.13l1.41,4.76,1.49-4.7a.44.44,0,0,1,.11-.18.36.36,0,0,1,.24-.08h.4a.34.34,0,0,1,.23.08.35.35,0,0,1,.11.18l1.5,4.7,1.41-4.76s0-.08.09-.13a.32.32,0,0,1,.2-.07h.52a.27.27,0,0,1,.26.26l0,.13-1.77,5.78a.5.5,0,0,1-.13.23.4.4,0,0,1-.26.08H335a.42.42,0,0,1-.43-.31l-1.45-4.51-1.46,4.51a.42.42,0,0,1-.42.31h-.45A.37.37,0,0,1,330.57,311.17Z"/>
        <path class="cls-1"
              d="M339.15,311.17a.3.3,0,0,1-.08-.21v-5.89a.32.32,0,0,1,.08-.21.27.27,0,0,1,.21-.09h.52a.28.28,0,0,1,.3.3v.55a1.87,1.87,0,0,1,1.73-.85h.49a.29.29,0,0,1,.21.08.28.28,0,0,1,.07.21v.46a.31.31,0,0,1-.07.21.29.29,0,0,1-.21.08h-.71a1.43,1.43,0,0,0-1.08.4,1.46,1.46,0,0,0-.39,1.08V311a.27.27,0,0,1-.09.21.32.32,0,0,1-.21.08h-.56A.3.3,0,0,1,339.15,311.17Z"/>
        <path class="cls-1"
              d="M343.73,303.47a.28.28,0,0,1-.08-.2v-.65a.32.32,0,0,1,.08-.21.29.29,0,0,1,.21-.09h.73a.29.29,0,0,1,.22.09.32.32,0,0,1,.08.21v.65a.28.28,0,0,1-.08.2.29.29,0,0,1-.22.08h-.73A.28.28,0,0,1,343.73,303.47Zm.1,7.7a.3.3,0,0,1-.08-.21v-5.9a.27.27,0,0,1,.29-.29h.55a.27.27,0,0,1,.28.29V311a.26.26,0,0,1-.08.21.28.28,0,0,1-.2.08H344A.32.32,0,0,1,343.83,311.17Z"/>
        <path class="cls-1"
              d="M347.3,309.07v-3.34h-1a.26.26,0,0,1-.2-.07.28.28,0,0,1-.08-.2v-.4a.32.32,0,0,1,.08-.21.26.26,0,0,1,.2-.08h1v-2.08a.28.28,0,0,1,.08-.2.23.23,0,0,1,.2-.08h.54a.26.26,0,0,1,.21.08.28.28,0,0,1,.08.2v2.08H350a.29.29,0,0,1,.21.08.32.32,0,0,1,.08.21v.4a.26.26,0,0,1-.29.27h-1.54V309a1.75,1.75,0,0,0,.21,1,.75.75,0,0,0,.7.32h.76a.25.25,0,0,1,.2.09.27.27,0,0,1,.07.2V311a.3.3,0,0,1-.07.21.28.28,0,0,1-.2.08h-.85C347.94,311.25,347.3,310.52,347.3,309.07Z"/>
        <path class="cls-1"
              d="M352.11,310.58a3.22,3.22,0,0,1-.84-2.16v-.83a3.22,3.22,0,0,1,.84-2.14,3,3,0,0,1,4.15.07,3.51,3.51,0,0,1,.75,2.37v.22a.27.27,0,0,1-.28.29h-4.32v.11a2.31,2.31,0,0,0,.49,1.38,1.5,1.5,0,0,0,1.22.57,1.75,1.75,0,0,0,1-.23,1.9,1.9,0,0,0,.55-.48.74.74,0,0,1,.18-.18.51.51,0,0,1,.21,0h.55a.28.28,0,0,1,.19.07.19.19,0,0,1,.08.16,1.09,1.09,0,0,1-.34.66,2.7,2.7,0,0,1-.95.66,3.32,3.32,0,0,1-1.41.28A2.66,2.66,0,0,1,352.11,310.58Zm3.77-3v0a2.13,2.13,0,0,0-.47-1.42,1.61,1.61,0,0,0-1.27-.54,1.57,1.57,0,0,0-1.27.54,2.13,2.13,0,0,0-.46,1.42v0Z"/>
        <path class="cls-1"
              d="M362.11,310.6a3,3,0,0,1-.79-2.05v-1.07a3,3,0,0,1,.8-2.06,2.84,2.84,0,0,1,2.1-.77,2.81,2.81,0,0,1,2.1.77,3,3,0,0,1,.8,2.06,4.84,4.84,0,0,1,0,.53,5,5,0,0,1,0,.54,3,3,0,0,1-.79,2.05,2.75,2.75,0,0,1-2.11.77A2.78,2.78,0,0,1,362.11,310.6Zm3.38-.67a2.14,2.14,0,0,0,.5-1.45c0-.08,0-.24,0-.47s0-.39,0-.47a2.16,2.16,0,0,0-.5-1.45,1.64,1.64,0,0,0-1.27-.51,1.62,1.62,0,0,0-1.26.51,2.22,2.22,0,0,0-.51,1.45v.94a2.2,2.2,0,0,0,.51,1.45,1.62,1.62,0,0,0,1.26.51A1.64,1.64,0,0,0,365.49,309.93Z"/>
        <path class="cls-1"
              d="M368.8,311.17a.26.26,0,0,1-.08-.21v-5.9a.27.27,0,0,1,.28-.29h.54a.27.27,0,0,1,.29.29v.55a2.52,2.52,0,0,1,.86-.71,2.67,2.67,0,0,1,1.23-.25,2.31,2.31,0,0,1,1.85.76,3,3,0,0,1,.66,2V311a.26.26,0,0,1-.08.21.28.28,0,0,1-.2.08h-.58a.28.28,0,0,1-.2-.08.26.26,0,0,1-.08-.21v-3.45a2.05,2.05,0,0,0-.44-1.39,1.56,1.56,0,0,0-1.24-.5,1.67,1.67,0,0,0-1.27.5,1.94,1.94,0,0,0-.48,1.39V311a.26.26,0,0,1-.08.21.28.28,0,0,1-.2.08H369A.28.28,0,0,1,368.8,311.17Z"/>
        <path class="cls-1"
              d="M376.33,311.17a.3.3,0,0,1-.08-.21v-8.27a.29.29,0,0,1,.08-.21.3.3,0,0,1,.21-.07h.54a.25.25,0,0,1,.21.08.28.28,0,0,1,.08.2V311a.3.3,0,0,1-.08.21.29.29,0,0,1-.21.08h-.54A.3.3,0,0,1,376.33,311.17Z"/>
        <path class="cls-1"
              d="M380.19,313.54a.25.25,0,0,1-.08-.17,1.24,1.24,0,0,1,.06-.23l1-2.28-2.37-5.61a.59.59,0,0,1-.08-.22.31.31,0,0,1,.09-.18.25.25,0,0,1,.17-.08h.58a.31.31,0,0,1,.29.2l1.92,4.58,2-4.58a.32.32,0,0,1,.3-.2h.56a.28.28,0,0,1,.25.25.6.6,0,0,1-.06.23l-3.53,8.16a.53.53,0,0,1-.13.16.34.34,0,0,1-.18,0h-.55A.24.24,0,0,1,380.19,313.54Z"/>
        <path class="cls-1"
              d="M385,313.15a.3.3,0,0,1-.08-.21v-.41a.27.27,0,0,1,.08-.19.21.21,0,0,1,.17-.08,1.44,1.44,0,0,0,1.11-.48,3.06,3.06,0,0,0,.57-1.52,22.81,22.81,0,0,0,0-5.72,3,3,0,0,0-.57-1.5,1.44,1.44,0,0,0-1.11-.48.25.25,0,0,1-.17-.08.3.3,0,0,1-.08-.2v-.41a.28.28,0,0,1,.08-.2.26.26,0,0,1,.2-.08,2.37,2.37,0,0,1,1.7.6,3.57,3.57,0,0,1,.9,1.87,16.53,16.53,0,0,1,.27,3.34,16.71,16.71,0,0,1-.27,3.35,3.53,3.53,0,0,1-.9,1.87,2.33,2.33,0,0,1-1.7.61A.3.3,0,0,1,385,313.15Z"/>
        <path class="cls-1"
              d="M217.89,186,216,180.63l0-.09a.21.21,0,0,1,.05-.12.21.21,0,0,1,.13,0h.39a.25.25,0,0,1,.15,0,.3.3,0,0,1,.07.1l1.64,4.75,1.66-4.75a.2.2,0,0,1,.07-.1.2.2,0,0,1,.14,0h.4a.17.17,0,0,1,.17.17s0,.07,0,.09L219,186a.31.31,0,0,1-.3.21h-.51A.29.29,0,0,1,217.89,186Z"/>
        <path class="cls-1"
              d="M221.93,186.13a.16.16,0,0,1-.05-.14v-5.42a.19.19,0,0,1,.18-.2h2.1a2.14,2.14,0,0,1,1.47.46,1.86,1.86,0,0,1,0,2.62,2.19,2.19,0,0,1-1.47.45h-1.49V186a.17.17,0,0,1-.06.14.15.15,0,0,1-.13.05h-.42A.15.15,0,0,1,221.93,186.13Zm2.19-2.9c.84,0,1.25-.36,1.25-1.09a1,1,0,0,0-.31-.81,1.35,1.35,0,0,0-.94-.28h-1.45v2.18Z"/>
        <path class="cls-1"
              d="M227.25,186.13a.2.2,0,0,1-.05-.14v-5.42a.2.2,0,0,1,.05-.14.16.16,0,0,1,.13-.06h.37a.21.21,0,0,1,.12,0,.3.3,0,0,1,.08.08l2.79,4.28v-4.2a.16.16,0,0,1,0-.14.18.18,0,0,1,.14-.06h.37a.2.2,0,0,1,.15.06.2.2,0,0,1,.05.14V186a.24.24,0,0,1-.05.14.19.19,0,0,1-.14.05h-.38a.18.18,0,0,1-.19-.11L228,181.83V186a.16.16,0,0,1,0,.14.17.17,0,0,1-.14.05h-.38A.15.15,0,0,1,227.25,186.13Z"/>
        <path class="cls-1"
              d="M235,186.13a.2.2,0,0,1,0-.14v-5.43a.19.19,0,0,1,0-.13.18.18,0,0,1,.14-.06h.41a.15.15,0,0,1,.13.06.15.15,0,0,1,.05.13v4.93h2.78a.2.2,0,0,1,.14,0,.18.18,0,0,1,.06.14V186a.17.17,0,0,1-.06.14.19.19,0,0,1-.14.05h-3.37A.17.17,0,0,1,235,186.13Z"/>
        <path class="cls-1"
              d="M239.53,181a.17.17,0,0,1-.05-.14v-.43a.19.19,0,0,1,.05-.14.18.18,0,0,1,.14-.06h.49a.21.21,0,0,1,.2.2v.43a.18.18,0,0,1-.06.14.19.19,0,0,1-.14.05h-.49A.17.17,0,0,1,239.53,181Zm.07,5.13a.17.17,0,0,1-.06-.14v-3.93a.18.18,0,0,1,.06-.14.19.19,0,0,1,.13,0h.37a.24.24,0,0,1,.14,0,.22.22,0,0,1,0,.14V186a.2.2,0,0,1,0,.14.19.19,0,0,1-.14.05h-.37A.15.15,0,0,1,239.6,186.13Z"/>
        <path class="cls-1"
              d="M241.59,186.13a.16.16,0,0,1-.05-.14v-3.93a.17.17,0,0,1,.05-.14.2.2,0,0,1,.14,0h.35a.17.17,0,0,1,.19.19v.36a1.85,1.85,0,0,1,.58-.47,1.81,1.81,0,0,1,.82-.17,1.57,1.57,0,0,1,1.24.52,2,2,0,0,1,.43,1.34V186a.17.17,0,0,1-.19.19h-.38a.15.15,0,0,1-.13-.05.17.17,0,0,1-.06-.14v-2.3a1.37,1.37,0,0,0-.29-.92,1,1,0,0,0-.83-.34,1.14,1.14,0,0,0-.85.34,1.28,1.28,0,0,0-.31.92V186a.17.17,0,0,1-.06.14.15.15,0,0,1-.13.05h-.38A.16.16,0,0,1,241.59,186.13Z"/>
        <path class="cls-1"
              d="M246.91,185.74a2.14,2.14,0,0,1-.56-1.44v-.56a2.13,2.13,0,0,1,.56-1.42,2,2,0,0,1,2.76.05,2.28,2.28,0,0,1,.51,1.57v.15a.18.18,0,0,1-.06.14.16.16,0,0,1-.14.05H247.1v.08a1.52,1.52,0,0,0,.34.92,1,1,0,0,0,.81.38,1.24,1.24,0,0,0,.64-.15,1.28,1.28,0,0,0,.36-.32.32.32,0,0,1,.12-.12.28.28,0,0,1,.14,0h.37a.2.2,0,0,1,.13,0,.14.14,0,0,1,.05.11.78.78,0,0,1-.22.44,1.85,1.85,0,0,1-.64.44,2.16,2.16,0,0,1-.94.19A1.77,1.77,0,0,1,246.91,185.74Zm2.51-2v0a1.34,1.34,0,0,0-.32-.94,1.15,1.15,0,0,0-1.69,0,1.44,1.44,0,0,0-.31.94v0Z"/>
        <path class="cls-1"
              d="M39.85,17.52a2.46,2.46,0,0,1-.62-1.65V14.39a2.46,2.46,0,0,1,.62-1.65,2.24,2.24,0,0,1,1.68-.6,2.83,2.83,0,0,1,1.26.26,1.93,1.93,0,0,1,.77.69,1.84,1.84,0,0,1,.29.9.17.17,0,0,1-.05.12.21.21,0,0,1-.13.05h-.42a.18.18,0,0,1-.13,0A.37.37,0,0,1,43,14a1.37,1.37,0,0,0-.51-.9,1.72,1.72,0,0,0-1-.26c-1,0-1.46.54-1.5,1.61,0,.15,0,.38,0,.69s0,.55,0,.71c0,1.07.54,1.6,1.5,1.6a1.74,1.74,0,0,0,1-.26,1.37,1.37,0,0,0,.51-.89.37.37,0,0,1,.08-.14.25.25,0,0,1,.13,0h.42a.21.21,0,0,1,.13,0,.17.17,0,0,1,.05.12,1.84,1.84,0,0,1-.29.9,1.93,1.93,0,0,1-.77.69,2.83,2.83,0,0,1-1.26.26A2.24,2.24,0,0,1,39.85,17.52Z"/>
        <path class="cls-1"
              d="M44.93,18a.16.16,0,0,1-.06-.13V13.92a.18.18,0,0,1,.06-.14.16.16,0,0,1,.13-.06h.35a.18.18,0,0,1,.2.2v.36a1.25,1.25,0,0,1,1.15-.56h.33a.17.17,0,0,1,.19.19v.31a.19.19,0,0,1-.05.13.17.17,0,0,1-.14.06h-.48a1,1,0,0,0-.71.26,1,1,0,0,0-.27.73v2.45a.15.15,0,0,1-.05.13.2.2,0,0,1-.14.06h-.38A.16.16,0,0,1,44.93,18Z"/>
        <path class="cls-1"
              d="M48.62,19.56a.16.16,0,0,1,0-.11s0-.07,0-.15l.65-1.52L47.68,14a.26.26,0,0,1,0-.14.17.17,0,0,1,0-.12.21.21,0,0,1,.12,0h.38a.2.2,0,0,1,.2.13l1.28,3.06L51,13.85a.21.21,0,0,1,.2-.13h.37a.17.17,0,0,1,.17.17.33.33,0,0,1,0,.14l-2.35,5.45a.45.45,0,0,1-.09.1.21.21,0,0,1-.12,0h-.36A.17.17,0,0,1,48.62,19.56Z"/>
        <path class="cls-1"
              d="M52.61,19.56a.2.2,0,0,1,0-.14V13.91a.2.2,0,0,1,0-.14.22.22,0,0,1,.14,0h.35a.17.17,0,0,1,.19.19v.37a1.61,1.61,0,0,1,1.37-.64,1.56,1.56,0,0,1,1.31.55,2.35,2.35,0,0,1,.46,1.4v.57a2.35,2.35,0,0,1-.46,1.4,1.79,1.79,0,0,1-2.66-.07v1.93a.17.17,0,0,1-.05.14.22.22,0,0,1-.14.05h-.37A.17.17,0,0,1,52.61,19.56Zm2.76-2.46a1.81,1.81,0,0,0,.3-1,1.63,1.63,0,0,0,0-.24c0-1.06-.39-1.6-1.18-1.6a1,1,0,0,0-.88.39,1.58,1.58,0,0,0-.31.91c0,.06,0,.17,0,.32s0,.26,0,.33a1.41,1.41,0,0,0,.32.87,1,1,0,0,0,.87.37A1,1,0,0,0,55.37,17.1Z"/>
        <path class="cls-1"
              d="M57.8,16.58V14.36h-.65a.17.17,0,0,1-.13,0,.15.15,0,0,1-.05-.13v-.27a.19.19,0,0,1,.05-.14.17.17,0,0,1,.13,0h.65V12.33a.19.19,0,0,1,.05-.13.18.18,0,0,1,.14-.06h.36a.18.18,0,0,1,.14.06.19.19,0,0,1,0,.13v1.39h1a.22.22,0,0,1,.14,0,.24.24,0,0,1,0,.14v.27a.19.19,0,0,1,0,.13.22.22,0,0,1-.14,0h-1v2.16a1.19,1.19,0,0,0,.14.64.5.5,0,0,0,.47.22h.51a.21.21,0,0,1,.13.05.24.24,0,0,1,.05.14v.28a.19.19,0,0,1-.05.13.18.18,0,0,1-.13.06h-.57C58.23,18,57.8,17.55,57.8,16.58Z"/>
        <path class="cls-1"
              d="M61,17.6a2,2,0,0,1-.53-1.37v-.71A2,2,0,0,1,61,14.15a1.9,1.9,0,0,1,1.4-.51,1.87,1.87,0,0,1,1.4.51,2,2,0,0,1,.54,1.37c0,.12,0,.24,0,.36s0,.23,0,.35a2,2,0,0,1-.53,1.37,1.84,1.84,0,0,1-1.41.52A1.8,1.8,0,0,1,61,17.6Zm2.25-.44a1.47,1.47,0,0,0,.33-1,2.29,2.29,0,0,0,0-.31,2.47,2.47,0,0,0,0-.32,1.49,1.49,0,0,0-.33-1,1.25,1.25,0,0,0-1.69,0,1.49,1.49,0,0,0-.34,1v.63a1.47,1.47,0,0,0,.34,1,1.22,1.22,0,0,0,1.69,0Z"/>
        <path class="cls-1"
              d="M65.74,17.62a2,2,0,0,1-.52-1.41v-.66a2,2,0,0,1,.52-1.41,1.84,1.84,0,0,1,1.39-.5,2.17,2.17,0,0,1,1,.21,1.54,1.54,0,0,1,.62.52A1.4,1.4,0,0,1,69,15a.15.15,0,0,1-.06.13.18.18,0,0,1-.13.06h-.37a.21.21,0,0,1-.12,0A.42.42,0,0,1,68.2,15a1,1,0,0,0-.41-.57,1.12,1.12,0,0,0-.66-.17,1.09,1.09,0,0,0-.83.32,1.52,1.52,0,0,0-.33,1v.58a1.54,1.54,0,0,0,.33,1,1.13,1.13,0,0,0,.83.32,1.21,1.21,0,0,0,.67-.17,1.08,1.08,0,0,0,.4-.58.36.36,0,0,1,.09-.13.16.16,0,0,1,.12,0h.37a.18.18,0,0,1,.13.06.14.14,0,0,1,.06.13,1.33,1.33,0,0,1-.22.62,1.56,1.56,0,0,1-.62.53,2.05,2.05,0,0,1-1,.22A1.88,1.88,0,0,1,65.74,17.62Z"/>
        <path class="cls-1"
              d="M70.35,17.61a2.07,2.07,0,0,1-.43-1.36V13.91a.2.2,0,0,1,.06-.14.19.19,0,0,1,.13,0h.39a.19.19,0,0,1,.13,0,.2.2,0,0,1,.06.14v2.3c0,.84.36,1.26,1.09,1.26a1.09,1.09,0,0,0,.85-.34,1.33,1.33,0,0,0,.31-.92v-2.3a.19.19,0,0,1,0-.14.22.22,0,0,1,.14,0h.38a.17.17,0,0,1,.19.19v3.94a.19.19,0,0,1,0,.13.2.2,0,0,1-.14.06h-.36a.21.21,0,0,1-.19-.19v-.38a1.61,1.61,0,0,1-.56.49,2,2,0,0,1-.82.16A1.53,1.53,0,0,1,70.35,17.61Z"/>
        <path class="cls-1"
              d="M75,18a.15.15,0,0,1,0-.13V13.92a.17.17,0,0,1,0-.14.18.18,0,0,1,.14-.06h.35a.22.22,0,0,1,.14,0,.2.2,0,0,1,.05.15v.36a1.26,1.26,0,0,1,1.16-.56h.32a.2.2,0,0,1,.14,0,.16.16,0,0,1,0,.14v.31a.15.15,0,0,1,0,.13.17.17,0,0,1-.14.06h-.47a1,1,0,0,0-.72.26,1,1,0,0,0-.26.73v2.45a.16.16,0,0,1-.06.13.18.18,0,0,1-.14.06h-.37A.18.18,0,0,1,75,18Z"/>
        <path class="cls-1"
              d="M78.12,18a.15.15,0,0,1-.05-.13V13.92a.17.17,0,0,1,.05-.14.18.18,0,0,1,.14-.06h.35a.2.2,0,0,1,.14,0,.2.2,0,0,1,.06.15v.36A1.24,1.24,0,0,1,80,13.72h.32a.2.2,0,0,1,.14,0,.16.16,0,0,1,0,.14v.31a.15.15,0,0,1,0,.13.17.17,0,0,1-.14.06h-.47a1,1,0,0,0-.72.26,1,1,0,0,0-.26.73v2.45a.16.16,0,0,1-.06.13.18.18,0,0,1-.14.06h-.37A.18.18,0,0,1,78.12,18Z"/>
        <path class="cls-1"
              d="M81.46,17.59a2.14,2.14,0,0,1-.55-1.44v-.56a2.12,2.12,0,0,1,.55-1.42,2,2,0,0,1,2.77.05,2.33,2.33,0,0,1,.5,1.57v.15a.2.2,0,0,1,0,.14.17.17,0,0,1-.14.05H81.66v.08a1.58,1.58,0,0,0,.33.92,1,1,0,0,0,.82.38,1.18,1.18,0,0,0,.63-.15,1.33,1.33,0,0,0,.37-.32.32.32,0,0,1,.12-.12.37.37,0,0,1,.14,0h.36a.18.18,0,0,1,.13,0,.13.13,0,0,1,.06.11.75.75,0,0,1-.23.44,1.81,1.81,0,0,1-.63.44,2.19,2.19,0,0,1-.94.19A1.81,1.81,0,0,1,81.46,17.59Zm2.52-2v0a1.4,1.4,0,0,0-.32-1,1.07,1.07,0,0,0-.84-.37,1,1,0,0,0-.85.37,1.39,1.39,0,0,0-.31,1v0Z"/>
        <path class="cls-1"
              d="M85.8,18a.16.16,0,0,1-.06-.13V13.91a.19.19,0,0,1,.2-.19h.35a.2.2,0,0,1,.14,0,.16.16,0,0,1,0,.14v.37a1.75,1.75,0,0,1,.58-.48,1.82,1.82,0,0,1,.82-.16,1.53,1.53,0,0,1,1.23.51,2,2,0,0,1,.44,1.35v2.35a.15.15,0,0,1,0,.13.17.17,0,0,1-.14.06H89a.21.21,0,0,1-.19-.19v-2.3a1.38,1.38,0,0,0-.29-.93,1,1,0,0,0-.83-.34,1.14,1.14,0,0,0-.85.34,1.29,1.29,0,0,0-.31.93v2.3a.21.21,0,0,1-.19.19h-.38A.17.17,0,0,1,85.8,18Z"/>
        <path class="cls-1"
              d="M91.1,17.62a2,2,0,0,1-.52-1.41v-.66a2,2,0,0,1,.52-1.41,1.84,1.84,0,0,1,1.39-.5,2.17,2.17,0,0,1,1,.21,1.54,1.54,0,0,1,.62.52,1.4,1.4,0,0,1,.22.64.15.15,0,0,1-.06.13.18.18,0,0,1-.13.06h-.37a.21.21,0,0,1-.12,0,.42.42,0,0,1-.09-.14,1.06,1.06,0,0,0-.41-.57,1.12,1.12,0,0,0-.66-.17,1.09,1.09,0,0,0-.83.32,1.52,1.52,0,0,0-.33,1v.58a1.54,1.54,0,0,0,.33,1,1.13,1.13,0,0,0,.83.32,1.23,1.23,0,0,0,.67-.17,1.13,1.13,0,0,0,.4-.58.36.36,0,0,1,.09-.13.16.16,0,0,1,.12,0h.37a.18.18,0,0,1,.13.06.14.14,0,0,1,.06.13,1.33,1.33,0,0,1-.22.62,1.56,1.56,0,0,1-.62.53,2.05,2.05,0,0,1-1,.22A1.88,1.88,0,0,1,91.1,17.62Z"/>
        <path class="cls-1"
              d="M95.83,19.56a.16.16,0,0,1,0-.11.54.54,0,0,1,0-.15l.65-1.52L94.88,14a.39.39,0,0,1,0-.14.23.23,0,0,1,.06-.12.18.18,0,0,1,.12,0h.38a.2.2,0,0,1,.2.13l1.28,3.06,1.31-3.06a.2.2,0,0,1,.2-.13h.37a.17.17,0,0,1,.17.17.63.63,0,0,1,0,.14l-2.35,5.45a.45.45,0,0,1-.09.1.21.21,0,0,1-.12,0H96A.15.15,0,0,1,95.83,19.56Z"/>
        <path class="cls-1"
              d="M40.89,27.78,39,22.44l0-.09a.14.14,0,0,1,.06-.11.13.13,0,0,1,.12,0h.4a.21.21,0,0,1,.14,0,.19.19,0,0,1,.07.11l1.64,4.74,1.66-4.74a.19.19,0,0,1,.07-.11.2.2,0,0,1,.14,0h.4a.15.15,0,0,1,.12,0,.16.16,0,0,1,0,.11s0,.07,0,.09L42,27.78a.29.29,0,0,1-.3.22h-.5A.29.29,0,0,1,40.89,27.78Z"/>
        <path class="cls-1"
              d="M44.76,22.81a.15.15,0,0,1,0-.13v-.43a.2.2,0,0,1,0-.15.16.16,0,0,1,.14-.05h.49a.19.19,0,0,1,.14.05.2.2,0,0,1,0,.15v.43a.15.15,0,0,1,0,.13.2.2,0,0,1-.14.06H44.9A.17.17,0,0,1,44.76,22.81Zm.07,5.13a.16.16,0,0,1-.06-.13V23.87a.21.21,0,0,1,.19-.19h.37a.21.21,0,0,1,.19.19v3.94a.21.21,0,0,1-.19.19H45A.16.16,0,0,1,44.83,27.94Z"/>
        <path class="cls-1"
              d="M46.82,27.94a.16.16,0,0,1-.06-.13V23.88a.18.18,0,0,1,.06-.14.16.16,0,0,1,.13-.06h.35a.2.2,0,0,1,.15.06.2.2,0,0,1,0,.14v.36a1.25,1.25,0,0,1,1.16-.56H49a.17.17,0,0,1,.19.19v.31a.24.24,0,0,1-.05.14.2.2,0,0,1-.14.05h-.47a.91.91,0,0,0-1,1v2.45a.16.16,0,0,1-.06.13.2.2,0,0,1-.14.06H47A.16.16,0,0,1,46.82,27.94Z"/>
        <path class="cls-1"
              d="M50.26,26.54V24.32H49.6a.17.17,0,0,1-.18-.18v-.27a.19.19,0,0,1,0-.13.16.16,0,0,1,.13-.06h.66V22.29a.15.15,0,0,1,.05-.13.16.16,0,0,1,.13-.06h.37a.21.21,0,0,1,.19.19v1.39h1a.21.21,0,0,1,.19.19v.27a.16.16,0,0,1-.06.13.19.19,0,0,1-.13.05H51v2.17a1.25,1.25,0,0,0,.13.64.53.53,0,0,0,.47.21h.51a.16.16,0,0,1,.13.06.15.15,0,0,1,0,.13v.28a.15.15,0,0,1,0,.13.16.16,0,0,1-.13.06h-.57C50.69,28,50.26,27.51,50.26,26.54Z"/>
        <path class="cls-1"
              d="M53.5,27.57a2,2,0,0,1-.44-1.36V23.87a.21.21,0,0,1,.19-.19h.39a.21.21,0,0,1,.19.19v2.3c0,.84.36,1.26,1.09,1.26a1.11,1.11,0,0,0,.85-.33,1.37,1.37,0,0,0,.31-.93v-2.3a.19.19,0,0,1,.05-.13.18.18,0,0,1,.14-.06h.38a.18.18,0,0,1,.14.06.19.19,0,0,1,.05.13v3.94a.19.19,0,0,1-.05.13.18.18,0,0,1-.14.06h-.36a.21.21,0,0,1-.19-.19v-.38a1.61,1.61,0,0,1-.56.49,1.82,1.82,0,0,1-.82.16A1.49,1.49,0,0,1,53.5,27.57Z"/>
        <path class="cls-1"
              d="M58.53,27.91a1.44,1.44,0,0,1-.55-.45,1.1,1.1,0,0,1-.2-.63,1.08,1.08,0,0,1,.45-.9,2.52,2.52,0,0,1,1.22-.46l1.24-.18v-.24c0-.57-.33-.85-1-.85a1.13,1.13,0,0,0-.61.15,1,1,0,0,0-.34.36.26.26,0,0,1-.07.11.17.17,0,0,1-.1,0h-.33a.17.17,0,0,1-.18-.18.82.82,0,0,1,.18-.45,1.59,1.59,0,0,1,.55-.44,2.08,2.08,0,0,1,.91-.18,1.77,1.77,0,0,1,1.34.43,1.57,1.57,0,0,1,.4,1.08v2.7a.21.21,0,0,1-.19.19h-.37a.16.16,0,0,1-.13-.06.19.19,0,0,1,0-.13v-.37a1.42,1.42,0,0,1-.53.46,2,2,0,0,1-.9.18A1.59,1.59,0,0,1,58.53,27.91Zm1.81-.79a1.41,1.41,0,0,0,.35-1v-.23l-1,.14a2.17,2.17,0,0,0-.9.28.59.59,0,0,0,0,1,1.16,1.16,0,0,0,.66.18A1.18,1.18,0,0,0,60.34,27.12Z"/>
        <path class="cls-1"
              d="M62.71,27.94a.19.19,0,0,1-.05-.13V22.29a.22.22,0,0,1,.05-.14.24.24,0,0,1,.14,0h.37a.21.21,0,0,1,.19.19v5.52a.21.21,0,0,1-.19.19h-.37A.2.2,0,0,1,62.71,27.94Z"/>
        <path class="cls-1"
              d="M66.85,27.94a.19.19,0,0,1,0-.13V22.39a.23.23,0,0,1,0-.15.15.15,0,0,1,.13,0h.4a.2.2,0,0,1,.15,0,.23.23,0,0,1,0,.15v2.3h2.89v-2.3a.23.23,0,0,1,0-.15.19.19,0,0,1,.14,0h.4a.2.2,0,0,1,.15,0,.23.23,0,0,1,.05.15v5.42a.16.16,0,0,1-.06.13.18.18,0,0,1-.14.06h-.4a.2.2,0,0,1-.14-.06.19.19,0,0,1,0-.13V25.42H67.58v2.39a.16.16,0,0,1-.06.13.17.17,0,0,1-.14.06H67A.16.16,0,0,1,66.85,27.94Z"/>
        <path class="cls-1"
              d="M73.24,29.53a.16.16,0,0,1,0-.12.54.54,0,0,1,0-.15l.64-1.52L72.29,24a.5.5,0,0,1-.05-.15.16.16,0,0,1,.06-.12.16.16,0,0,1,.11-.05h.38a.22.22,0,0,1,.2.13l1.28,3.06,1.31-3.06a.24.24,0,0,1,.2-.13h.38a.16.16,0,0,1,.11.05.13.13,0,0,1,0,.12.34.34,0,0,1,0,.15l-2.35,5.44a.29.29,0,0,1-.08.1.28.28,0,0,1-.13,0h-.36A.16.16,0,0,1,73.24,29.53Z"/>
        <path class="cls-1"
              d="M77.22,29.53a.25.25,0,0,1,0-.15V23.87a.2.2,0,0,1,0-.14.24.24,0,0,1,.14-.05h.35a.17.17,0,0,1,.19.19v.37a1.61,1.61,0,0,1,1.37-.64,1.56,1.56,0,0,1,1.31.55A2.35,2.35,0,0,1,81,25.56c0,.06,0,.15,0,.28s0,.22,0,.28a2.32,2.32,0,0,1-.46,1.4,1.77,1.77,0,0,1-2.65-.07v1.93a.17.17,0,0,1-.06.14.16.16,0,0,1-.14.05h-.37A.23.23,0,0,1,77.22,29.53ZM80,27.06a1.65,1.65,0,0,0,.3-1,1.63,1.63,0,0,0,0-.24c0-1.06-.39-1.6-1.18-1.6a1,1,0,0,0-.87.39,1.51,1.51,0,0,0-.31.91,2.55,2.55,0,0,0,0,.32,2.65,2.65,0,0,0,0,.33,1.33,1.33,0,0,0,.32.87,1,1,0,0,0,.86.37A1,1,0,0,0,80,27.06Z"/>
        <path class="cls-1"
              d="M82.45,27.55a2.19,2.19,0,0,1-.56-1.44v-.55a2.18,2.18,0,0,1,.56-1.43,1.8,1.8,0,0,1,1.35-.53,1.78,1.78,0,0,1,1.42.58,2.36,2.36,0,0,1,.5,1.58v.15a.19.19,0,0,1,0,.13.2.2,0,0,1-.14.06H82.65v.07a1.51,1.51,0,0,0,.33.92,1,1,0,0,0,.81.38,1.21,1.21,0,0,0,.64-.15A1.33,1.33,0,0,0,84.8,27a.71.71,0,0,1,.11-.12l.15,0h.36a.2.2,0,0,1,.13,0,.13.13,0,0,1,0,.11.72.72,0,0,1-.22.44,1.76,1.76,0,0,1-.64.44,2.13,2.13,0,0,1-.94.19A1.8,1.8,0,0,1,82.45,27.55Zm2.51-2v0a1.39,1.39,0,0,0-.31-1,1.07,1.07,0,0,0-.85-.36,1,1,0,0,0-.84.36,1.39,1.39,0,0,0-.31,1v0Z"/>
        <path class="cls-1"
              d="M86.79,27.94a.16.16,0,0,1-.06-.13V23.88a.18.18,0,0,1,.06-.14.16.16,0,0,1,.13-.06h.35a.2.2,0,0,1,.15.06.2.2,0,0,1,0,.14v.36a1.25,1.25,0,0,1,1.16-.56H89a.17.17,0,0,1,.19.19v.31a.24.24,0,0,1,0,.14.2.2,0,0,1-.14.05h-.47a.91.91,0,0,0-1,1v2.45a.16.16,0,0,1-.06.13.2.2,0,0,1-.14.06h-.38A.16.16,0,0,1,86.79,27.94Z"/>
        <path class="cls-1"
              d="M93,27.78l-1.87-5.34,0-.09a.14.14,0,0,1,.06-.11.13.13,0,0,1,.12,0h.39a.22.22,0,0,1,.15,0,.19.19,0,0,1,.07.11l1.64,4.74,1.66-4.74a.19.19,0,0,1,.07-.11.2.2,0,0,1,.14,0h.4a.16.16,0,0,1,.12,0,.16.16,0,0,1,0,.11s0,.07,0,.09l-1.87,5.34a.29.29,0,0,1-.3.22h-.5A.29.29,0,0,1,93,27.78Z"/>
        <path class="cls-1"
              d="M96.89,22.81a.16.16,0,0,1-.06-.13v-.43a.2.2,0,0,1,.06-.15.16.16,0,0,1,.14-.05h.49a.19.19,0,0,1,.14.05.2.2,0,0,1,0,.15v.43a.15.15,0,0,1,0,.13.2.2,0,0,1-.14.06H97A.17.17,0,0,1,96.89,22.81ZM97,27.94a.16.16,0,0,1-.06-.13V23.87a.21.21,0,0,1,.19-.19h.37a.21.21,0,0,1,.19.19v3.94a.21.21,0,0,1-.19.19h-.37A.16.16,0,0,1,97,27.94Z"/>
        <path class="cls-1"
              d="M99.4,27.89a1.58,1.58,0,0,1-.58-.42.71.71,0,0,1-.19-.4.15.15,0,0,1,.06-.13.18.18,0,0,1,.12-.05h.35l.08,0,.08.07a1.46,1.46,0,0,0,.42.37,1.3,1.3,0,0,0,.64.13,1.37,1.37,0,0,0,.72-.16.53.53,0,0,0,.27-.48.49.49,0,0,0-.12-.34,1.19,1.19,0,0,0-.38-.22,6.58,6.58,0,0,0-.81-.22,2,2,0,0,1-1-.45,1.1,1.1,0,0,1-.11-1.37,1.3,1.3,0,0,1,.54-.46,1.91,1.91,0,0,1,.86-.18,2.14,2.14,0,0,1,.89.17,1.57,1.57,0,0,1,.56.41.67.67,0,0,1,.18.39.13.13,0,0,1,0,.12.15.15,0,0,1-.13,0h-.31a.18.18,0,0,1-.17-.09l-.24-.24a.68.68,0,0,0-.27-.15,1.56,1.56,0,0,0-.46-.06.94.94,0,0,0-.62.17.52.52,0,0,0-.22.45.48.48,0,0,0,.09.29.84.84,0,0,0,.35.23,4.77,4.77,0,0,0,.76.21,2.4,2.4,0,0,1,1.12.47,1,1,0,0,1,.33.79,1.16,1.16,0,0,1-.2.65,1.38,1.38,0,0,1-.61.45,2.35,2.35,0,0,1-1,.17A2.21,2.21,0,0,1,99.4,27.89Z"/>
        <path class="cls-1"
              d="M103.46,27.57a2,2,0,0,1-.53-1.37v-.72a2,2,0,0,1,.53-1.37,2.18,2.18,0,0,1,2.8,0,2,2,0,0,1,.54,1.37c0,.12,0,.24,0,.36s0,.23,0,.36a2.07,2.07,0,0,1-.53,1.37,1.87,1.87,0,0,1-1.41.51A1.84,1.84,0,0,1,103.46,27.57Zm2.24-.45a1.47,1.47,0,0,0,.34-1,2.29,2.29,0,0,0,0-.31,2.47,2.47,0,0,0,0-.32,1.44,1.44,0,0,0-.34-1,1.05,1.05,0,0,0-.84-.34,1.08,1.08,0,0,0-.84.34,1.44,1.44,0,0,0-.34,1v.63a1.47,1.47,0,0,0,.34,1,1.08,1.08,0,0,0,.84.34A1.05,1.05,0,0,0,105.7,27.12Z"/>
        <path class="cls-1"
              d="M107.91,27.94a.19.19,0,0,1,0-.13V23.88a.22.22,0,0,1,0-.14.18.18,0,0,1,.14-.06h.35a.21.21,0,0,1,.2.2v.36a1.24,1.24,0,0,1,1.15-.56h.32a.23.23,0,0,1,.15.05.2.2,0,0,1,0,.14v.31a.24.24,0,0,1,0,.14.23.23,0,0,1-.15.05h-.47a.91.91,0,0,0-1,1v2.45a.16.16,0,0,1-.06.13.17.17,0,0,1-.14.06h-.37A.18.18,0,0,1,107.91,27.94Z"/>
        <path class="cls-1"
              d="M470.66,200.81a.15.15,0,0,1-.05-.13v-5.42a.2.2,0,0,1,.05-.15.17.17,0,0,1,.13-.05h3.37a.2.2,0,0,1,.14.05.2.2,0,0,1,.06.15v.3a.17.17,0,0,1-.06.14.16.16,0,0,1-.14.05h-2.78v2H474a.19.19,0,0,1,.15.06.15.15,0,0,1,.05.13v.32a.24.24,0,0,1-.05.14.25.25,0,0,1-.15,0h-2.61v2.26a.16.16,0,0,1-.06.13.18.18,0,0,1-.14.06h-.39A.15.15,0,0,1,470.66,200.81Z"/>
        <path class="cls-1"
              d="M475.33,195.68a.16.16,0,0,1-.06-.13v-.43a.17.17,0,0,1,.06-.14.16.16,0,0,1,.13-.06H476a.21.21,0,0,1,.2.2v.43a.16.16,0,0,1-.06.13.17.17,0,0,1-.14.06h-.49A.16.16,0,0,1,475.33,195.68Zm.06,5.13a.19.19,0,0,1-.05-.13v-3.94a.19.19,0,0,1,.05-.13.18.18,0,0,1,.14-.06h.36a.17.17,0,0,1,.14.06.16.16,0,0,1,.06.13v3.94a.16.16,0,0,1-.06.13.17.17,0,0,1-.14.06h-.36A.18.18,0,0,1,475.39,200.81Z"/>
        <path class="cls-1"
              d="M477.39,200.81a.16.16,0,0,1-.06-.13v-3.93a.2.2,0,0,1,.06-.14.16.16,0,0,1,.13-.06h.35a.2.2,0,0,1,.15.06.2.2,0,0,1,.05.14v.37a1.23,1.23,0,0,1,1.15-.57h.33a.2.2,0,0,1,.14,0,.22.22,0,0,1,.05.14v.31a.22.22,0,0,1-.05.14.2.2,0,0,1-.14.05h-.48a.91.91,0,0,0-1,1v2.45a.16.16,0,0,1-.06.13.2.2,0,0,1-.14.06h-.38A.16.16,0,0,1,477.39,200.81Z"/>
        <path class="cls-1"
              d="M480.73,200.42a2.14,2.14,0,0,1-.56-1.44v-.55a2.13,2.13,0,0,1,.56-1.43,1.77,1.77,0,0,1,1.35-.53,1.74,1.74,0,0,1,1.41.58,2.31,2.31,0,0,1,.51,1.58v.15a.21.21,0,0,1-.19.19h-2.88V199a1.45,1.45,0,0,0,.33.92,1,1,0,0,0,.81.39,1.24,1.24,0,0,0,.64-.16,1.5,1.5,0,0,0,.37-.32.69.69,0,0,1,.11-.12l.14,0h.37a.2.2,0,0,1,.13,0,.16.16,0,0,1,.05.11.72.72,0,0,1-.22.44,1.76,1.76,0,0,1-.64.44,2.16,2.16,0,0,1-.94.19A1.73,1.73,0,0,1,480.73,200.42Zm2.51-2v0a1.41,1.41,0,0,0-.31-.95,1.08,1.08,0,0,0-.85-.36,1.07,1.07,0,0,0-.85.36,1.46,1.46,0,0,0-.3.95v0Z"/>
        <path class="cls-1"
              d="M485.86,200.82a.31.31,0,0,1-.09-.16l-1.18-3.85v-.08a.17.17,0,0,1,.17-.18h.34a.22.22,0,0,1,.14,0s.06.06.06.08l.94,3.18,1-3.13a.19.19,0,0,1,.07-.12.21.21,0,0,1,.16-.06h.26a.21.21,0,0,1,.16.06.25.25,0,0,1,.08.12l1,3.13.94-3.18.06-.08a.22.22,0,0,1,.14,0h.34a.17.17,0,0,1,.17.18v.08l-1.18,3.85a.31.31,0,0,1-.09.16.3.3,0,0,1-.18.05h-.3a.28.28,0,0,1-.28-.21l-1-3-1,3a.27.27,0,0,1-.28.21H486A.3.3,0,0,1,485.86,200.82Z"/>
        <path class="cls-1"
              d="M491.85,200.79a1.44,1.44,0,0,1-.54-.46,1,1,0,0,1-.21-.63,1.08,1.08,0,0,1,.45-.9,2.56,2.56,0,0,1,1.22-.46l1.25-.18v-.24c0-.57-.33-.85-1-.85a1.14,1.14,0,0,0-.62.15,1.06,1.06,0,0,0-.34.36.19.19,0,0,1-.07.11.15.15,0,0,1-.1,0h-.32a.19.19,0,0,1-.13-.05.18.18,0,0,1-.06-.13.76.76,0,0,1,.18-.44,1.47,1.47,0,0,1,.55-.44,2,2,0,0,1,.92-.19,1.74,1.74,0,0,1,1.33.43,1.52,1.52,0,0,1,.4,1.08v2.7a.19.19,0,0,1,0,.13.18.18,0,0,1-.14.06h-.36a.18.18,0,0,1-.14-.06.19.19,0,0,1-.05-.13v-.37a1.34,1.34,0,0,1-.53.46,1.93,1.93,0,0,1-.89.18A1.73,1.73,0,0,1,491.85,200.79Zm1.82-.8a1.45,1.45,0,0,0,.35-1v-.23l-1,.14a2.27,2.27,0,0,0-.91.28.59.59,0,0,0,0,1,1.22,1.22,0,0,0,.66.19A1.19,1.19,0,0,0,493.67,200Z"/>
        <path class="cls-1"
              d="M496,200.81a.16.16,0,0,1-.06-.13v-5.51A.2.2,0,0,1,496,195a.18.18,0,0,1,.13,0h.37a.19.19,0,0,1,.14.05.2.2,0,0,1,.05.14v5.51a.19.19,0,0,1-.05.13.2.2,0,0,1-.14.06h-.37A.16.16,0,0,1,496,200.81Z"/>
        <path class="cls-1"
              d="M498,200.81a.16.16,0,0,1-.06-.13v-5.51A.2.2,0,0,1,498,195a.2.2,0,0,1,.14,0h.36a.17.17,0,0,1,.14.05.2.2,0,0,1,.05.14v5.51a.19.19,0,0,1-.05.13.18.18,0,0,1-.14.06h-.36A.17.17,0,0,1,498,200.81Z"/>
        <path class="cls-1"
              d="M519.51,168.43a.19.19,0,0,1,0-.13v-5.43a.22.22,0,0,1,0-.14.15.15,0,0,1,.13,0h2a2.23,2.23,0,0,1,1.48.44,1.58,1.58,0,0,1,.54,1.29,1.65,1.65,0,0,1-.32,1,1.59,1.59,0,0,1-.88.56l1.28,2.22a.29.29,0,0,1,0,.09.16.16,0,0,1,0,.12.16.16,0,0,1-.11.05h-.37a.27.27,0,0,1-.19-.06.59.59,0,0,1-.13-.17l-1.22-2.12h-1.48v2.16a.16.16,0,0,1-.06.13.18.18,0,0,1-.14.06h-.4A.16.16,0,0,1,519.51,168.43Zm2.13-3c.83,0,1.25-.35,1.25-1.06s-.42-1.05-1.25-1.05h-1.4v2.11Z"/>
        <path class="cls-1"
              d="M524.94,168.43a.19.19,0,0,1-.05-.13v-5.43a.22.22,0,0,1,.05-.14.15.15,0,0,1,.13,0h3.41a.2.2,0,0,1,.15,0,.22.22,0,0,1,0,.14v.3a.22.22,0,0,1,0,.14.25.25,0,0,1-.15.05h-2.83v1.85h2.65a.2.2,0,0,1,.14,0,.19.19,0,0,1,.06.15v.28a.19.19,0,0,1-.2.19h-2.65v1.92h2.9a.2.2,0,0,1,.14,0,.19.19,0,0,1,.06.15v.3a.16.16,0,0,1-.06.13.2.2,0,0,1-.14.06h-3.48A.16.16,0,0,1,524.94,168.43Z"/>
        <path class="cls-1"
              d="M530.58,168.35a1.68,1.68,0,0,1-.76-.57,1.27,1.27,0,0,1-.28-.75.13.13,0,0,1,.05-.12.17.17,0,0,1,.12,0h.41a.21.21,0,0,1,.21.17,1,1,0,0,0,.42.6,1.71,1.71,0,0,0,1,.25,1.82,1.82,0,0,0,1.06-.25.79.79,0,0,0,.35-.69.65.65,0,0,0-.17-.46,1.54,1.54,0,0,0-.51-.32c-.23-.09-.56-.21-1-.34a5,5,0,0,1-1-.39,1.58,1.58,0,0,1-.57-.51,1.49,1.49,0,0,1-.19-.77,1.4,1.4,0,0,1,.24-.8,1.63,1.63,0,0,1,.7-.55,2.6,2.6,0,0,1,1.08-.21,2.53,2.53,0,0,1,1.11.23,1.76,1.76,0,0,1,.7.57,1.31,1.31,0,0,1,.26.7.17.17,0,0,1,0,.12.19.19,0,0,1-.13,0h-.41a.2.2,0,0,1-.13,0,.32.32,0,0,1-.08-.13.83.83,0,0,0-.4-.58,1.49,1.49,0,0,0-.87-.24,1.69,1.69,0,0,0-.9.22.74.74,0,0,0-.33.65.68.68,0,0,0,.16.48,1.25,1.25,0,0,0,.47.32,8.22,8.22,0,0,0,.93.33,6.87,6.87,0,0,1,1.11.39,1.52,1.52,0,0,1,.6.5,1.26,1.26,0,0,1,.2.76,1.42,1.42,0,0,1-.59,1.21,2.67,2.67,0,0,1-1.61.44A2.86,2.86,0,0,1,530.58,168.35Z"/>
        <path class="cls-1"
              d="M536.32,168.43a.16.16,0,0,1-.06-.13v-4.91h-1.6a.22.22,0,0,1-.14,0,.24.24,0,0,1,0-.14v-.33a.22.22,0,0,1,0-.14.17.17,0,0,1,.14,0h4a.2.2,0,0,1,.15,0,.21.21,0,0,1,0,.14v.33a.19.19,0,0,1-.05.14.22.22,0,0,1-.14,0h-1.59v4.91a.16.16,0,0,1-.06.13.18.18,0,0,1-.14.06h-.4A.16.16,0,0,1,536.32,168.43Z"/>
        <path class="cls-1"
              d="M540.88,168.44a.16.16,0,0,1,0-.12v-.09l2.06-5.37a.26.26,0,0,1,.27-.18h.53a.25.25,0,0,1,.26.18l2.06,5.37,0,.09a.21.21,0,0,1,0,.12.21.21,0,0,1-.13.05h-.38a.2.2,0,0,1-.14-.05.17.17,0,0,1-.07-.1l-.47-1.19h-2.74l-.46,1.19a.23.23,0,0,1-.21.15H541A.16.16,0,0,1,540.88,168.44Zm1.42-2h2.27l-1.14-3Z"/>
        <path class="cls-1"
              d="M547,168.43a.15.15,0,0,1,0-.13v-5.43a.17.17,0,0,1,0-.14.14.14,0,0,1,.13,0h2.1a2.21,2.21,0,0,1,1.47.45,1.61,1.61,0,0,1,.54,1.31,1.59,1.59,0,0,1-.54,1.31,2.21,2.21,0,0,1-1.47.45h-1.5v2.1a.15.15,0,0,1-.05.13.18.18,0,0,1-.14.06h-.41A.15.15,0,0,1,547,168.43Zm2.19-2.9c.83,0,1.25-.36,1.25-1.09a1,1,0,0,0-.31-.81,1.35,1.35,0,0,0-.94-.28h-1.46v2.18Z"/>
        <path class="cls-1"
              d="M552.31,168.43a.15.15,0,0,1,0-.13v-5.43a.17.17,0,0,1,0-.14.14.14,0,0,1,.13,0h.41a.22.22,0,0,1,.15,0,.25.25,0,0,1,0,.15v5.43a.16.16,0,0,1-.06.13.17.17,0,0,1-.14.06h-.41A.15.15,0,0,1,552.31,168.43Z"/>
        <path class="cls-1"
              d="M557.08,169.4a2.36,2.36,0,0,1-.6-1.25,13.9,13.9,0,0,1,0-4.46,2.37,2.37,0,0,1,.6-1.24,1.58,1.58,0,0,1,1.14-.41.16.16,0,0,1,.13.06.17.17,0,0,1,.06.14v.27a.21.21,0,0,1,0,.13.18.18,0,0,1-.12.05,1,1,0,0,0-.74.32,2.19,2.19,0,0,0-.38,1,11.86,11.86,0,0,0-.11,1.9,12,12,0,0,0,.11,1.91,2.19,2.19,0,0,0,.38,1,1,1,0,0,0,.74.32.18.18,0,0,1,.12.05.21.21,0,0,1,0,.13v.28a.21.21,0,0,1-.19.19A1.58,1.58,0,0,1,557.08,169.4Z"/>
        <path class="cls-1"
              d="M559.31,168.43a.19.19,0,0,1,0-.13v-5.43a.22.22,0,0,1,0-.14.17.17,0,0,1,.14,0h.39a.18.18,0,0,1,.15,0,.17.17,0,0,1,0,.14v2.31h2.89v-2.31a.18.18,0,0,1,.06-.14.15.15,0,0,1,.13,0h.4a.2.2,0,0,1,.15,0,.22.22,0,0,1,.05.14v5.43a.16.16,0,0,1-.06.13.18.18,0,0,1-.14.06h-.4a.21.21,0,0,1-.19-.19v-2.4H560v2.4a.19.19,0,0,1,0,.13.2.2,0,0,1-.15.06h-.39A.18.18,0,0,1,559.31,168.43Z"/>
        <path class="cls-1"
              d="M566.5,168.43a.16.16,0,0,1-.06-.13v-4.91h-1.6a.17.17,0,0,1-.19-.19v-.33a.22.22,0,0,1,.05-.14.19.19,0,0,1,.14,0h4a.17.17,0,0,1,.14,0,.22.22,0,0,1,0,.14v.33a.2.2,0,0,1-.06.14.19.19,0,0,1-.13,0h-1.6v4.91a.16.16,0,0,1-.06.13.17.17,0,0,1-.14.06h-.4A.16.16,0,0,1,566.5,168.43Z"/>
        <path class="cls-1"
              d="M571.29,168.43a.16.16,0,0,1-.06-.13v-4.91h-1.6a.17.17,0,0,1-.19-.19v-.33a.22.22,0,0,1,0-.14.19.19,0,0,1,.14,0h4a.17.17,0,0,1,.14,0,.22.22,0,0,1,0,.14v.33a.2.2,0,0,1-.06.14.19.19,0,0,1-.13,0H572v4.91a.16.16,0,0,1-.06.13.18.18,0,0,1-.14.06h-.4A.16.16,0,0,1,571.29,168.43Z"/>
        <path class="cls-1"
              d="M574.8,168.43a.19.19,0,0,1,0-.13v-5.43a.22.22,0,0,1,0-.14.17.17,0,0,1,.13,0H577a2.23,2.23,0,0,1,1.47.45,1.61,1.61,0,0,1,.53,1.31,1.58,1.58,0,0,1-.53,1.31,2.23,2.23,0,0,1-1.47.45h-1.5v2.1a.19.19,0,0,1,0,.13.18.18,0,0,1-.14.06h-.42A.18.18,0,0,1,574.8,168.43Zm2.19-2.9c.84,0,1.26-.36,1.26-1.09a1.07,1.07,0,0,0-.31-.81,1.38,1.38,0,0,0-1-.28h-1.45v2.18Z"/>
        <path class="cls-1"
              d="M580.74,168.35a1.74,1.74,0,0,1-.76-.57,1.27,1.27,0,0,1-.28-.75.17.17,0,0,1,.17-.17h.41a.21.21,0,0,1,.21.17,1,1,0,0,0,.43.6,1.68,1.68,0,0,0,1,.25,1.8,1.8,0,0,0,1.06-.25.79.79,0,0,0,.35-.69.65.65,0,0,0-.17-.46,1.54,1.54,0,0,0-.51-.32,10.4,10.4,0,0,0-1-.34,4.85,4.85,0,0,1-1-.39,1.43,1.43,0,0,1-.57-.51,1.54,1.54,0,0,1,.05-1.57,1.6,1.6,0,0,1,.69-.55,2.6,2.6,0,0,1,1.08-.21,2.53,2.53,0,0,1,1.11.23,1.76,1.76,0,0,1,.7.57,1.31,1.31,0,0,1,.26.7.17.17,0,0,1-.17.17h-.42a.17.17,0,0,1-.12,0,.25.25,0,0,1-.09-.13.8.8,0,0,0-.4-.58,1.49,1.49,0,0,0-.87-.24,1.65,1.65,0,0,0-.89.22.75.75,0,0,0-.34.65.73.73,0,0,0,.16.48,1.25,1.25,0,0,0,.47.32,8.53,8.53,0,0,0,.94.33,6.38,6.38,0,0,1,1.1.39,1.63,1.63,0,0,1,.61.5,1.34,1.34,0,0,1,.19.76,1.4,1.4,0,0,1-.59,1.21,2.67,2.67,0,0,1-1.61.44A2.89,2.89,0,0,1,580.74,168.35Z"/>
        <path class="cls-1"
              d="M584.54,169.75a.19.19,0,0,1,0-.13v-.28a.21.21,0,0,1,0-.13.17.17,0,0,1,.12-.05.94.94,0,0,0,.73-.32,2.08,2.08,0,0,0,.39-1,13.32,13.32,0,0,0,.11-1.91,13.17,13.17,0,0,0-.11-1.9,2.08,2.08,0,0,0-.39-1,.94.94,0,0,0-.73-.32.17.17,0,0,1-.12-.05.21.21,0,0,1,0-.13v-.27a.2.2,0,0,1,0-.14.18.18,0,0,1,.13-.06,1.58,1.58,0,0,1,1.14.41,2.37,2.37,0,0,1,.6,1.24,13.9,13.9,0,0,1,0,4.46,2.36,2.36,0,0,1-.6,1.25,1.58,1.58,0,0,1-1.14.41A.18.18,0,0,1,584.54,169.75Z"/>
        <path class="cls-1"
              d="M683.83,176a.17.17,0,0,1-.06-.14v-5.42a.17.17,0,0,1,.06-.14.15.15,0,0,1,.13-.06h.41a.2.2,0,0,1,.14.05.18.18,0,0,1,0,.15v5.42a.16.16,0,0,1,0,.14.18.18,0,0,1-.14.06H684A.15.15,0,0,1,683.83,176Z"/>
        <path class="cls-1"
              d="M686,176a.16.16,0,0,1-.05-.14v-3.93a.17.17,0,0,1,.05-.14.22.22,0,0,1,.14-.05h.35a.16.16,0,0,1,.19.19v.36a1.85,1.85,0,0,1,.58-.47,1.81,1.81,0,0,1,.82-.17,1.57,1.57,0,0,1,1.24.52,2,2,0,0,1,.44,1.34v2.35a.17.17,0,0,1-.06.14.16.16,0,0,1-.13.06h-.39A.16.16,0,0,1,689,176a.17.17,0,0,1-.06-.14v-2.3a1.32,1.32,0,0,0-.29-.92,1,1,0,0,0-.83-.34,1.11,1.11,0,0,0-.84.34,1.24,1.24,0,0,0-.32.92v2.3a.19.19,0,0,1-.19.2h-.38A.18.18,0,0,1,686,176Z"/>
        <path class="cls-1"
              d="M691.25,174.59v-2.22h-.66a.17.17,0,0,1-.18-.19v-.26a.17.17,0,0,1,.18-.19h.66v-1.39a.15.15,0,0,1,0-.13.15.15,0,0,1,.13-.06h.36a.18.18,0,0,1,.14.06.15.15,0,0,1,.05.13v1.39h1a.22.22,0,0,1,.14.05.17.17,0,0,1,.05.14v.26a.17.17,0,0,1-.05.14.22.22,0,0,1-.14.05h-1v2.16a1.19,1.19,0,0,0,.14.64.5.5,0,0,0,.47.22h.51a.19.19,0,0,1,.13.05.24.24,0,0,1,0,.14v.27a.2.2,0,0,1,0,.14.16.16,0,0,1-.13.06h-.57C691.67,176.05,691.25,175.56,691.25,174.59Z"/>
        <path class="cls-1"
              d="M694.45,175.6a2.19,2.19,0,0,1-.56-1.44v-.56a2.18,2.18,0,0,1,.56-1.42,2,2,0,0,1,2.77,0,2.33,2.33,0,0,1,.5,1.57V174a.22.22,0,0,1-.05.14.19.19,0,0,1-.14,0h-2.88v.08a1.58,1.58,0,0,0,.33.92,1,1,0,0,0,.81.38,1.21,1.21,0,0,0,.64-.15,1.33,1.33,0,0,0,.37-.32.44.44,0,0,1,.11-.12.3.3,0,0,1,.15,0h.36a.2.2,0,0,1,.13,0,.12.12,0,0,1,.05.11.72.72,0,0,1-.22.44,1.76,1.76,0,0,1-.64.44,2.13,2.13,0,0,1-.94.19A1.8,1.8,0,0,1,694.45,175.6Zm2.51-2v0a1.38,1.38,0,0,0-.31-.94,1.07,1.07,0,0,0-.85-.37,1,1,0,0,0-.84.37,1.38,1.38,0,0,0-.31.94v0Z"/>
        <path class="cls-1"
              d="M698.79,176a.17.17,0,0,1-.06-.14v-3.92a.18.18,0,0,1,.06-.14.16.16,0,0,1,.13-.06h.35a.18.18,0,0,1,.2.2v.36a1.25,1.25,0,0,1,1.16-.56H701a.16.16,0,0,1,.14.05.2.2,0,0,1,0,.14v.31a.19.19,0,0,1,0,.13.17.17,0,0,1-.14.06h-.47a.9.9,0,0,0-1,1v2.45a.17.17,0,0,1-.06.14.2.2,0,0,1-.14.06h-.38A.16.16,0,0,1,698.79,176Z"/>
        <path class="cls-1"
              d="M701.91,176a.17.17,0,0,1-.06-.14v-3.93a.18.18,0,0,1,.06-.14.2.2,0,0,1,.14-.05h.35a.17.17,0,0,1,.19.19v.36a1.85,1.85,0,0,1,.58-.47,1.81,1.81,0,0,1,.82-.17,1.53,1.53,0,0,1,1.23.52,2,2,0,0,1,.44,1.34v2.35a.16.16,0,0,1,0,.14.18.18,0,0,1-.14.06h-.38A.16.16,0,0,1,705,176a.17.17,0,0,1-.06-.14v-2.3a1.37,1.37,0,0,0-.29-.92,1,1,0,0,0-.83-.34,1.14,1.14,0,0,0-.85.34,1.28,1.28,0,0,0-.31.92v2.3a.17.17,0,0,1-.06.14.16.16,0,0,1-.13.06h-.38A.17.17,0,0,1,701.91,176Z"/>
        <path class="cls-1"
              d="M707.22,175.6a2.18,2.18,0,0,1-.55-1.44v-.56a2.17,2.17,0,0,1,.55-1.42,1.78,1.78,0,0,1,1.36-.54,1.75,1.75,0,0,1,1.41.59,2.28,2.28,0,0,1,.51,1.57V174a.18.18,0,0,1-.06.14.15.15,0,0,1-.13,0h-2.89v.08a1.52,1.52,0,0,0,.34.92,1,1,0,0,0,.81.38,1.24,1.24,0,0,0,.64-.15,1.28,1.28,0,0,0,.36-.32.32.32,0,0,1,.12-.12.28.28,0,0,1,.14,0h.37a.2.2,0,0,1,.13,0,.14.14,0,0,1,0,.11.72.72,0,0,1-.22.44,1.85,1.85,0,0,1-.64.44,2.16,2.16,0,0,1-.94.19A1.81,1.81,0,0,1,707.22,175.6Zm2.52-2v0a1.34,1.34,0,0,0-.32-.94,1.15,1.15,0,0,0-1.69,0,1.44,1.44,0,0,0-.31.94v0Z"/>
        <path class="cls-1"
              d="M711.86,174.59v-2.22h-.66a.19.19,0,0,1-.13-.05.22.22,0,0,1-.05-.14v-.26a.22.22,0,0,1,.05-.14.19.19,0,0,1,.13-.05h.66v-1.39a.15.15,0,0,1,0-.13.15.15,0,0,1,.13-.06h.36a.17.17,0,0,1,.14.06.16.16,0,0,1,.06.13v1.39h1a.19.19,0,0,1,.13.05.18.18,0,0,1,.06.14v.26a.18.18,0,0,1-.06.14.19.19,0,0,1-.13.05h-1v2.16a1.2,1.2,0,0,0,.13.64.5.5,0,0,0,.47.22h.51a.19.19,0,0,1,.13.05.24.24,0,0,1,0,.14v.27a.2.2,0,0,1,0,.14.16.16,0,0,1-.13.06h-.57C712.29,176.05,711.86,175.56,711.86,174.59Z"/>
        <polygon class="cls-1"
                 points="465.62 173.35 453.67 173.35 453.67 170.78 448.72 173.64 453.67 176.5 453.67 173.93 465.62 173.93 465.62 173.35"/>
        <polygon class="cls-1"
                 points="596.35 173.64 591.4 170.78 591.4 173.35 507.97 173.35 507.97 173.93 591.4 173.93 591.4 176.5 596.35 173.64"/>
        <path class="cls-1"
              d="M105.32,307.52H40.74a9,9,0,0,1-9-9V265.06a9,9,0,0,1,9-9h64.58a9,9,0,0,1,9,9V298.5A9,9,0,0,1,105.32,307.52ZM40.74,257.19a7.87,7.87,0,0,0-7.86,7.87V298.5a7.87,7.87,0,0,0,7.86,7.87h64.58a7.88,7.88,0,0,0,7.86-7.87V265.06a7.88,7.88,0,0,0-7.86-7.87Z"/>
        <path class="cls-1"
              d="M105.32,235.43H40.74a9,9,0,0,1-9-9V193a9,9,0,0,1,9-9h64.58a9,9,0,0,1,9,9v33.44A9,9,0,0,1,105.32,235.43ZM40.74,185.1A7.87,7.87,0,0,0,32.88,193v33.44a7.87,7.87,0,0,0,7.86,7.87h64.58a7.88,7.88,0,0,0,7.86-7.87V193a7.88,7.88,0,0,0-7.86-7.87Z"/>
        <path class="cls-1"
              d="M105.32,163.33H40.74a9,9,0,0,1-9-9V120.87a9,9,0,0,1,9-9h64.58a9,9,0,0,1,9,9v33.45A9,9,0,0,1,105.32,163.33ZM40.74,113a7.87,7.87,0,0,0-7.86,7.86v33.45a7.87,7.87,0,0,0,7.86,7.87h64.58a7.88,7.88,0,0,0,7.86-7.87V120.87a7.87,7.87,0,0,0-7.86-7.86Z"/>
        <path class="cls-1"
              d="M105.32,91.24H40.74a9,9,0,0,1-9-9V48.78a9,9,0,0,1,9-9h64.58a9,9,0,0,1,9,9V82.23A9,9,0,0,1,105.32,91.24ZM40.74,40.91a7.87,7.87,0,0,0-7.86,7.87V82.23a7.87,7.87,0,0,0,7.86,7.86h64.58a7.87,7.87,0,0,0,7.86-7.86V48.78a7.88,7.88,0,0,0-7.86-7.87Z"/>
        <rect class="cls-1" x="117.87" y="65.22" width="49.32" height="0.57"/>
        <polygon class="cls-1" points="118.71 68.36 113.76 65.5 118.71 62.65 118.71 68.36"/>
        <rect class="cls-1" x="117.87" y="137.31" width="49.32" height="0.57"/>
        <polygon class="cls-1" points="118.71 140.46 113.76 137.6 118.71 134.74 118.71 140.46"/>
        <rect class="cls-1" x="117.87" y="209.4" width="49.32" height="0.57"/>
        <polygon class="cls-1" points="118.71 212.55 113.76 209.69 118.71 206.83 118.71 212.55"/>
        <rect class="cls-1" x="117.87" y="281.49" width="49.32" height="0.57"/>
        <polygon class="cls-1" points="118.71 284.64 113.76 281.78 118.71 278.92 118.71 284.64"/>
        <rect class="cls-1" x="166.91" y="65.67" width="0.57" height="216.11"/>
        <path class="cls-2"
              d="M61.92,69a.29.29,0,0,1-.09-.21v-8.1a.34.34,0,0,1,.08-.23.28.28,0,0,1,.22-.09h3.61a3.19,3.19,0,0,1,2.18.65,2.21,2.21,0,0,1,.72,1.74,1.91,1.91,0,0,1-.32,1.11,1.89,1.89,0,0,1-.74.65,2.24,2.24,0,0,1,.89.77,2.16,2.16,0,0,1,.36,1.22A2.38,2.38,0,0,1,68,68.33a3.15,3.15,0,0,1-2.19.71H62.13A.26.26,0,0,1,61.92,69Zm3.59-5.05a1.44,1.44,0,0,0,1-.31,1.08,1.08,0,0,0,.34-.84,1,1,0,0,0-.33-.81,1.5,1.5,0,0,0-1-.28H63.58V63.9Zm.13,3.81a1.37,1.37,0,0,0,1-.36,1.19,1.19,0,0,0,.36-.9,1.18,1.18,0,0,0-.37-.9,1.36,1.36,0,0,0-1-.36H63.58v2.52Z"/>
        <path class="cls-2"
              d="M72.26,69a.32.32,0,0,1-.08-.21V61.88H69.87a.29.29,0,0,1-.21-.09.28.28,0,0,1-.09-.22v-.93a.3.3,0,0,1,.09-.23.26.26,0,0,1,.21-.09h6.37a.29.29,0,0,1,.22.09.3.3,0,0,1,.09.23v.93a.28.28,0,0,1-.09.22.29.29,0,0,1-.22.09h-2.3v6.86a.28.28,0,0,1-.08.21.26.26,0,0,1-.21.09H72.48A.29.29,0,0,1,72.26,69Z"/>
        <path class="cls-2"
              d="M78.35,68.29a3.44,3.44,0,0,1-1-2.5c0-.22,0-.59,0-1.1s0-.88,0-1.12a3.43,3.43,0,0,1,1-2.48A3.74,3.74,0,0,1,81,60.2a4.58,4.58,0,0,1,1.93.38,3,3,0,0,1,1.28,1,2.74,2.74,0,0,1,.48,1.48v0a.21.21,0,0,1-.08.16.24.24,0,0,1-.18.07H83.22a.29.29,0,0,1-.22-.07.52.52,0,0,1-.13-.24A1.74,1.74,0,0,0,82.22,62,2.1,2.1,0,0,0,81,61.64c-1.18,0-1.8.67-1.85,2,0,.22,0,.56,0,1s0,.82,0,1.06c0,1.33.67,2,1.85,2a2.14,2.14,0,0,0,1.22-.32,1.71,1.71,0,0,0,.65-1.09.66.66,0,0,1,.13-.24.29.29,0,0,1,.22-.07h1.21a.27.27,0,0,1,.19.08.19.19,0,0,1,.07.18,2.8,2.8,0,0,1-.48,1.49,3,3,0,0,1-1.28,1,4.43,4.43,0,0,1-1.93.38A3.75,3.75,0,0,1,78.35,68.29Z"/>
        <path class="cls-2"
              d="M61,141.06a.23.23,0,0,1-.09-.19.5.5,0,0,1,.05-.15l2.78-4-2.6-3.86a.3.3,0,0,1-.05-.15.26.26,0,0,1,.08-.19.24.24,0,0,1,.18-.07h1.31a.45.45,0,0,1,.38.23l1.82,2.67,1.83-2.67a.43.43,0,0,1,.39-.23h1.23a.24.24,0,0,1,.18.07.22.22,0,0,1,.08.19.32.32,0,0,1,0,.15L66,136.69l2.79,4a.42.42,0,0,1,0,.15.26.26,0,0,1-.08.19.24.24,0,0,1-.18.07H67.18a.44.44,0,0,1-.38-.22l-2-2.8-1.94,2.8a.47.47,0,0,1-.39.22H61.21A.24.24,0,0,1,61,141.06Z"/>
        <path class="cls-2"
              d="M70.05,141.05a.29.29,0,0,1-.09-.22v-8.1a.36.36,0,0,1,.08-.23.31.31,0,0,1,.22-.08h3.22a3.65,3.65,0,0,1,2.4.71,2.44,2.44,0,0,1,.87,2,2.59,2.59,0,0,1-.44,1.53,2.42,2.42,0,0,1-1.22.89l1.8,3.17a.27.27,0,0,1,0,.14.26.26,0,0,1-.08.19.24.24,0,0,1-.18.07H75.52a.5.5,0,0,1-.31-.09,1,1,0,0,1-.2-.24l-1.59-3h-1.7v3a.29.29,0,0,1-.09.22.36.36,0,0,1-.23.08H70.26A.29.29,0,0,1,70.05,141.05Zm3.4-4.62a1.66,1.66,0,0,0,1.12-.33,1.23,1.23,0,0,0,.37-1,1.27,1.27,0,0,0-.37-1,1.66,1.66,0,0,0-1.12-.34H71.72v2.62Z"/>
        <path class="cls-2"
              d="M78.44,141.05a.29.29,0,0,1-.09-.22v-8.1a.36.36,0,0,1,.08-.23.33.33,0,0,1,.22-.08H82a3.56,3.56,0,0,1,2.36.71,2.49,2.49,0,0,1,.86,2.06,2.44,2.44,0,0,1-.86,2,3.66,3.66,0,0,1-2.36.69H80.16v2.91a.27.27,0,0,1-.09.22.29.29,0,0,1-.22.08h-1.2A.32.32,0,0,1,78.44,141.05Zm3.49-4.52a1.6,1.6,0,0,0,1.1-.35,1.27,1.27,0,0,0,.38-1,1.38,1.38,0,0,0-.37-1,1.54,1.54,0,0,0-1.11-.36h-1.8v2.72Z"/>
        <path class="cls-2"
              d="M68.84,213.14a.29.29,0,0,1-.09-.21v-1.26a.31.31,0,0,1,.3-.3h1.26a.31.31,0,0,1,.3.3v1.26a.32.32,0,0,1-.08.21.29.29,0,0,1-.22.09H69.05A.29.29,0,0,1,68.84,213.14Z"/>
        <path class="cls-2"
              d="M72.19,213.14a.29.29,0,0,1-.09-.21v-1.26a.31.31,0,0,1,.3-.3h1.26a.31.31,0,0,1,.3.3v1.26a.32.32,0,0,1-.08.21.29.29,0,0,1-.22.09H72.4A.29.29,0,0,1,72.19,213.14Z"/>
        <path class="cls-2"
              d="M75.54,213.14a.29.29,0,0,1-.09-.21v-1.26a.31.31,0,0,1,.3-.3H77a.31.31,0,0,1,.3.3v1.26a.29.29,0,0,1-.09.21.26.26,0,0,1-.21.09H75.75A.29.29,0,0,1,75.54,213.14Z"/>
        <path class="cls-2"
              d="M60.43,285.23a.32.32,0,0,1-.08-.21v-8.11a.29.29,0,0,1,.08-.22.27.27,0,0,1,.22-.09h1a.42.42,0,0,1,.38.24l2.4,4.46,2.4-4.46a.43.43,0,0,1,.38-.24h1a.3.3,0,0,1,.23.09.29.29,0,0,1,.09.22V285a.29.29,0,0,1-.09.22.34.34,0,0,1-.23.08H67.13a.31.31,0,0,1-.3-.3v-5.36L65.1,283a.44.44,0,0,1-.41.28h-.52a.48.48,0,0,1-.42-.28L62,279.66V285a.32.32,0,0,1-.08.21.29.29,0,0,1-.22.09H60.65A.29.29,0,0,1,60.43,285.23Z"/>
        <path class="cls-2"
              d="M70.55,285.23a.29.29,0,0,1-.09-.21v-8.11a.33.33,0,0,1,.08-.22.28.28,0,0,1,.22-.09h1a.39.39,0,0,1,.36.21l3.56,5.53v-5.43a.33.33,0,0,1,.08-.22.29.29,0,0,1,.22-.09H77a.28.28,0,0,1,.22.09.29.29,0,0,1,.09.22V285a.29.29,0,0,1-.09.22.26.26,0,0,1-.21.09h-1a.39.39,0,0,1-.37-.21l-3.55-5.41V285a.32.32,0,0,1-.08.21.29.29,0,0,1-.22.09H70.76A.26.26,0,0,1,70.55,285.23Z"/>
        <path class="cls-2"
              d="M79.35,285.23a.29.29,0,0,1-.09-.21v-8.11a.33.33,0,0,1,.08-.22.29.29,0,0,1,.22-.09h3.22a3.67,3.67,0,0,1,2.4.71,2.46,2.46,0,0,1,.87,2,2.58,2.58,0,0,1-.44,1.52,2.42,2.42,0,0,1-1.22.89l1.81,3.18a.35.35,0,0,1,0,.14.22.22,0,0,1-.08.18.25.25,0,0,1-.18.08H84.83a.41.41,0,0,1-.31-.1.68.68,0,0,1-.2-.24l-1.6-3H81v3a.29.29,0,0,1-.09.21.29.29,0,0,1-.22.09H79.56A.29.29,0,0,1,79.35,285.23Zm3.4-4.62a1.65,1.65,0,0,0,1.12-.33,1.21,1.21,0,0,0,.37-1,1.25,1.25,0,0,0-.37-1,1.6,1.6,0,0,0-1.12-.34H81v2.61Z"/>
        <path class="cls-3"
              d="M476.15,176.11h2.07a1.44,1.44,0,0,0,1.43-1.44v-2.06a1.43,1.43,0,0,0-1.43-1.43h-8a1.43,1.43,0,0,0-1.43,1.43v2.06a1.44,1.44,0,0,0,1.43,1.44h6Z"/>
        <path class="cls-3"
              d="M476.15,165.22a1.43,1.43,0,0,0-1.43,1.43v2.06a1.43,1.43,0,0,0,1.43,1.43h8a1.43,1.43,0,0,0,1.43-1.43v-2.06a1.43,1.43,0,0,0-1.43-1.43h-8Z"/>
        <path class="cls-3"
              d="M484.18,182.07a1.43,1.43,0,0,0,1.43-1.43v-2.07a1.43,1.43,0,0,0-1.43-1.43h-8a1.43,1.43,0,0,0-1.43,1.43v2.07a1.43,1.43,0,0,0,1.43,1.43h8Z"/>
        <path class="cls-3"
              d="M491.58,184.54a1.44,1.44,0,0,0-1.44-1.43h-8a1.44,1.44,0,0,0-1.44,1.43v2.06a1.44,1.44,0,0,0,1.44,1.43h8a1.44,1.44,0,0,0,1.44-1.43Z"/>
        <path class="cls-3"
              d="M470.19,188h8a1.43,1.43,0,0,0,1.43-1.43v-2.06a1.43,1.43,0,0,0-1.43-1.43h-8a1.43,1.43,0,0,0-1.43,1.43v2.06A1.43,1.43,0,0,0,470.19,188Z"/>
        <path class="cls-3"
              d="M476.15,164.18h2.07a1.43,1.43,0,0,0,1.43-1.43v-2.07a1.43,1.43,0,0,0-1.43-1.43h-8a1.43,1.43,0,0,0-1.43,1.43v2.07a1.43,1.43,0,0,0,1.43,1.43h6Z"/>
        <path class="cls-3"
              d="M464.22,165.22a1.43,1.43,0,0,0-1.43,1.43v2.06a1.43,1.43,0,0,0,1.43,1.43h8a1.43,1.43,0,0,0,1.43-1.43v-2.06a1.43,1.43,0,0,0-1.43-1.43h-8Z"/>
        <path class="cls-3"
              d="M464.22,182.07h8a1.43,1.43,0,0,0,1.43-1.43v-2.07a1.43,1.43,0,0,0-1.43-1.43h-8a1.43,1.43,0,0,0-1.43,1.43v2.07A1.43,1.43,0,0,0,464.22,182.07Z"/>
        <path class="cls-3"
              d="M490.14,159.25h-8a1.44,1.44,0,0,0-1.44,1.43v2.07a1.44,1.44,0,0,0,1.44,1.43h8a1.44,1.44,0,0,0,1.44-1.43v-2.07A1.44,1.44,0,0,0,490.14,159.25Z"/>
        <path class="cls-3"
              d="M502.07,159.25h-8a1.43,1.43,0,0,0-1.43,1.43v2.07a1.43,1.43,0,0,0,1.43,1.43h8a1.43,1.43,0,0,0,1.43-1.43v-2.07A1.43,1.43,0,0,0,502.07,159.25Z"/>
        <path class="cls-3"
              d="M508,177.14h-2.52v1.36a7.37,7.37,0,0,1-.94,3.57H508a1.43,1.43,0,0,0,1.43-1.43v-2.07A1.43,1.43,0,0,0,508,177.14Z"/>
        <path class="cls-3"
              d="M502.48,184.48,499.07,187l-1,.74-1-.74-3.4-2.48a8.57,8.57,0,0,1-.79-.68,1.36,1.36,0,0,0-.24.74v2.06A1.43,1.43,0,0,0,494,188h8a1.43,1.43,0,0,0,1.43-1.43v-2.06a1.44,1.44,0,0,0-.23-.74A8.57,8.57,0,0,1,502.48,184.48Z"/>
        <path class="cls-3"
              d="M490.6,178.5v-1.36h-2.52a1.43,1.43,0,0,0-1.43,1.43v2.07a1.43,1.43,0,0,0,1.43,1.43h3.45A7.36,7.36,0,0,1,490.6,178.5Z"/>
        <path class="cls-3"
              d="M490.6,171.78v-.51a1.39,1.39,0,0,0-.46-.09h-8a1.44,1.44,0,0,0-1.44,1.43v2.06a1.45,1.45,0,0,0,1.44,1.44h8a1.4,1.4,0,0,0,.46-.1Z"/>
        <path class="cls-3"
              d="M492,170.08l5.4-.88a1.38,1.38,0,0,0,.1-.49v-2.06a1.43,1.43,0,0,0-1.43-1.43h-8a1.43,1.43,0,0,0-1.43,1.43v2.06a1.43,1.43,0,0,0,1.43,1.43h3.59Z"/>
        <path class="cls-3"
              d="M508,165.22h-8a1.43,1.43,0,0,0-1.43,1.43v2.06a1.63,1.63,0,0,0,.09.49l5.41.88.37.06H508a1.43,1.43,0,0,0,1.43-1.43v-2.06A1.43,1.43,0,0,0,508,165.22Z"/>
        <path class="cls-4"
              d="M498.06,170.84l-5.74.94v6.72a5.7,5.7,0,0,0,2.33,4.59l3.41,2.48,3.4-2.48a5.68,5.68,0,0,0,2.34-4.59v-6.72ZM497.43,181l-3.28-3.35L495,177l1.9,1.49a20.67,20.67,0,0,1,4.88-4.24l.2.46A20.18,20.18,0,0,0,497.43,181Z"/>
        <path class="cls-1"
              d="M164.27,336.45v-.57h7v.58h-7Zm-6.91,0h-6.91v-.57h6.91Zm-13.81,0h-6.91v-.57h6.91Zm-13.82,0h-6.91v-.57h6.91Zm-13.82,0H109v-.57h6.9Zm-13.81,0H95.19v-.57h6.91Zm-13.82,0h-6.9v-.57h6.9Zm-13.81,0H67.56v-.57h6.91Zm-13.82,0H53.74v-.57h6.91Zm-13.81,0H39.93v-.57h6.91Zm-13.82,0H31.69a32.83,32.83,0,0,1-5.6-.49l.1-.57a31.68,31.68,0,0,0,5.5.49H33Zm145.2-.78-.13-.56a31.39,31.39,0,0,0,6.45-2.24l.25.52A32.56,32.56,0,0,1,178.22,335.67ZM19.42,334a31.77,31.77,0,0,1-6.08-3.39l.33-.47a31.24,31.24,0,0,0,6,3.33Zm171.28-4.26-.35-.46a31,31,0,0,0,4.88-4.77l.45.37A32.7,32.7,0,0,1,190.7,329.73ZM8.15,326a31.34,31.34,0,0,1-4.07-5.64l.5-.28a31.92,31.92,0,0,0,4,5.54ZM199.48,319l-.51-.26a31.22,31.22,0,0,0,2.39-6.4l.55.14A31.22,31.22,0,0,1,199.48,319ZM1.35,313.94A31.74,31.74,0,0,1,.08,307.1l.58,0a30.54,30.54,0,0,0,1.24,6.71Zm201.51-8.31h-.57c0-.29,0-.58,0-.86v-6h.57v6C202.87,305.05,202.87,305.34,202.86,305.63ZM.57,300.17H0v-6.91H.57Zm202.3-8.36h-.57V284.9h.57ZM.57,286.35H0v-6.9H.57ZM202.87,278h-.57v-6.9h.57ZM.57,272.54H0v-6.91H.57Zm202.3-8.36h-.57v-6.91h.57ZM.57,258.72H0v-6.91H.57Zm202.3-8.36h-.57v-6.91h.57ZM.57,244.91H0V238H.57Zm202.3-8.36h-.57v-6.91h.57ZM.57,231.09H0v-6.91H.57Zm202.3-8.36h-.57v-6.91h.57ZM.57,217.27H0v-6.9H.57Zm202.3-8.36h-.57V202h.57ZM.57,203.46H0v-6.91H.57Zm202.3-8.36h-.57v-6.91h.57ZM.57,189.64H0v-6.91H.57Zm202.3-8.36h-.57v-6.91h.57ZM.57,175.83H0v-6.91H.57Zm202.3-8.36h-.57v-6.91h.57ZM.57,162H0V155.1H.57Zm202.3-8.36h-.57v-6.91h.57ZM.57,148.2H0v-6.91H.57Zm202.3-8.37h-.57v-6.9h.57ZM.57,134.38H0v-6.91H.57ZM202.87,126h-.57v-6.91h.57ZM.57,120.56H0v-6.9H.57Zm202.3-8.36h-.57v-6.91h.57ZM.57,106.75H0V99.84H.57Zm202.3-8.36h-.57V91.48h.57ZM.57,92.93H0V86H.57Zm202.3-8.36h-.57V77.66h.57ZM.57,79.12H0V72.21H.57Zm202.3-8.37h-.57v-6.9h.57ZM.57,65.3H0V58.39H.57Zm202.3-8.36h-.57V50h.57ZM.57,51.48H0v-6.9H.57Zm202.3-8.36h-.57v-6.9h.57ZM.57,37.67H0v-6c0-.31,0-.63,0-.94l.58,0c0,.31,0,.61,0,.92Zm201.64-8.34A30.46,30.46,0,0,0,201,22.62l.55-.17a31.16,31.16,0,0,1,1.28,6.84ZM1.53,24,1,23.86a32.36,32.36,0,0,1,2.45-6.51l.51.26A31.25,31.25,0,0,0,1.53,24Zm196.73-7.66a31.51,31.51,0,0,0-4-5.54l.43-.38a31.62,31.62,0,0,1,4.07,5.63ZM7.68,11.9l-.44-.37a31.74,31.74,0,0,1,5-4.85l.35.46A31.45,31.45,0,0,0,7.68,11.9ZM189.14,6.28a31.09,31.09,0,0,0-6-3.31l.22-.53a31.76,31.76,0,0,1,6.09,3.37ZM18.39,3.55,18.14,3A31.24,31.24,0,0,1,24.72.77l.12.56A31.13,31.13,0,0,0,18.39,3.55Zm158.23-2.5a30.91,30.91,0,0,0-5.44-.48h-1.39V0h1.39a32,32,0,0,1,5.54.48ZM162.88.57H156V0h6.91Zm-13.82,0h-6.9V0h6.9Zm-13.81,0h-6.91V0h6.91Zm-13.82,0h-6.91V0h6.91Zm-13.81,0h-6.91V0h6.91ZM93.8.57H86.89V0H93.8ZM80,.57h-6.9V0H80ZM66.17.57H59.26V0h6.91ZM52.35.57H45.44V0h6.91ZM38.54.57H31.69L31.63,0h6.91Z"/>
        <path class="cls-1"
              d="M698.57,275.08c-2.31,0-4.63-.08-6.93-.24l0-.57c2.28.16,4.6.23,6.88.23h.26v.58Zm7.17-.25,0-.57c2.28-.16,4.58-.4,6.85-.72l.08.57C710.35,274.43,708,274.67,705.74,274.83Zm-21-.68c-2.29-.32-4.59-.71-6.83-1.17l.12-.57c2.23.47,4.51.86,6.78,1.17Zm34.69-1.22-.12-.57c2.23-.46,4.48-1,6.69-1.64l.15.55C724,271.9,721.69,272.46,719.45,272.93Zm-48.25-1.58c-2.2-.62-4.42-1.33-6.6-2.1l.2-.54c2.16.77,4.36,1.47,6.56,2.08Zm61.57-2.18-.19-.54c2.14-.77,4.29-1.63,6.38-2.54l.24.52C737.09,267.54,734.92,268.39,732.77,269.17Zm-74.62-2.46c-2.11-.92-4.22-1.92-6.25-3l.26-.51c2,1,4.12,2,6.22,3Zm87.28-3.09-.26-.5c2-1.06,4-2.2,6-3.39l.3.48C749.49,261.42,747.46,262.57,745.43,263.62Zm-99.57-3.29c-2-1.2-3.92-2.48-5.79-3.81l.33-.47c1.87,1.32,3.8,2.6,5.75,3.79Zm111.37-3.93-.33-.47c1.86-1.31,3.7-2.72,5.47-4.17l.36.44C761,253.66,759.1,255.07,757.23,256.4Zm-122.68-4.07c-1.78-1.45-3.54-3-5.22-4.55l.39-.42c1.67,1.56,3.42,3.08,5.19,4.53Zm133.39-4.69-.39-.42c1.66-1.56,3.3-3.2,4.86-4.88l.42.39C771.26,244.42,769.62,246.07,767.94,247.64Zm-143.51-4.76c-1.57-1.68-3.1-3.44-4.55-5.22l.45-.36c1.44,1.77,3,3.52,4.52,5.19Zm152.94-5.37-.44-.36c1.44-1.78,2.84-3.63,4.15-5.5l.47.33C780.23,233.86,778.83,235.72,777.37,237.51Zm-161.68-5.36c-1.32-1.87-2.6-3.82-3.8-5.78l.49-.3c1.19,2,2.46,3.89,3.78,5.75Zm169.66-6-.49-.29c1.19-2,2.32-4,3.37-6l.51.26C787.69,222.18,786.55,224.21,785.35,226.18Zm-176.86-5.84c-1-2-2-4.13-3-6.24l.52-.23c.92,2.1,1.91,4.19,3,6.21Zm183.22-6.46-.53-.23c.91-2.1,1.75-4.26,2.52-6.42l.54.19C793.47,209.6,792.62,211.77,791.71,213.88ZM603,207.67c-.78-2.17-1.48-4.39-2.1-6.6l.55-.16c.62,2.2,1.32,4.41,2.09,6.56Zm193.34-6.85-.56-.16c.62-2.2,1.16-4.46,1.62-6.69l.56.11C797.48,196.33,796.93,198.6,796.32,200.82Zm-197.08-6.48c-.46-2.25-.86-4.55-1.17-6.83l.57-.07c.31,2.26.7,4.54,1.16,6.78Zm199.85-7.08-.57-.08c.31-2.25.54-4.56.69-6.85l.57,0C799.63,182.67,799.4,185,799.09,187.26Zm-201.72-6.63c-.16-2.29-.24-4.62-.24-6.93h.57c0,2.3.08,4.61.24,6.89Zm202.06-7.18c0-2.29-.09-4.6-.25-6.88l.57,0c.16,2.29.25,4.62.25,6.92Zm-201.5-6.62-.57,0c.15-2.3.38-4.62.69-6.89l.57.08C598.31,162.23,598.08,164.54,597.93,166.83Zm200.54-7.11c-.31-2.27-.7-4.55-1.17-6.78l.56-.12c.47,2.25.87,4.54,1.18,6.82Zm-198.69-6.53-.57-.12c.47-2.26,1-4.52,1.63-6.73l.56.16C600.78,148.69,600.24,150.94,599.78,153.19Zm195.88-6.94c-.62-2.2-1.32-4.41-2.09-6.56l.54-.19c.77,2.16,1.48,4.38,2.1,6.6Zm-192.19-6.32-.54-.19c.77-2.15,1.62-4.33,2.54-6.45l.53.23C605.08,135.63,604.23,137.79,603.47,139.93ZM791,133.3c-.91-2.09-1.91-4.17-3-6.21l.5-.26c1.07,2,2.07,4.14,3,6.24Zm-182.07-6-.51-.26c1.06-2,2.2-4.07,3.4-6l.49.3C611.15,123.25,610,125.27,609,127.29Zm175.72-6.18c-1.19-2-2.46-3.88-3.79-5.75l.47-.33c1.33,1.88,2.61,3.82,3.81,5.78Zm-168.56-5.58-.47-.33c1.32-1.88,2.73-3.74,4.18-5.52l.45.36C618.83,111.82,617.43,113.66,616.12,115.53Zm160.6-5.65c-1.44-1.76-3-3.5-4.53-5.18l.42-.39c1.57,1.68,3.11,3.44,4.55,5.21Zm-151.92-5-.42-.39c1.57-1.68,3.22-3.33,4.9-4.9l.39.42C628,101.54,626.36,103.18,624.8,104.85Zm142.51-5c-1.68-1.56-3.42-3.08-5.19-4.52l.36-.45c1.78,1.45,3.54,3,5.22,4.55Zm-132.46-4.4-.36-.44c1.78-1.45,3.63-2.86,5.51-4.19l.33.47C638.47,92.6,636.62,94,634.85,95.44Zm121.78-4.28c-1.87-1.32-3.81-2.59-5.77-3.78l.3-.49c2,1.2,3.92,2.48,5.8,3.8ZM646.08,87.49l-.3-.49c2-1.19,4-2.34,6-3.4l.26.51C650.05,85.16,648,86.3,646.08,87.49ZM744.86,84c-2-1.05-4.13-2.05-6.23-3l.23-.53c2.11.92,4.22,1.92,6.26,3Zm-86.58-2.86-.23-.53c2.1-.91,4.26-1.77,6.43-2.54l.19.54C662.52,79.39,660.37,80.24,658.28,81.15Zm73.93-2.62c-2.15-.76-4.36-1.46-6.56-2.07l.15-.55c2.22.61,4.44,1.31,6.6,2.08Zm-61-2-.15-.55c2.21-.63,4.47-1.18,6.73-1.65l.11.56C675.68,75.36,673.43,75.91,671.23,76.53ZM719,74.84c-2.25-.46-4.53-.84-6.79-1.15l.07-.57c2.28.31,4.58.7,6.83,1.16Zm-34.25-1.12-.08-.56c2.27-.32,4.59-.55,6.88-.71l0,.57C689.27,73.18,687,73.41,684.71,73.72ZM705.32,73c-2.23-.14-4.51-.22-6.76-.22h-.13v-.57h.13c2.27,0,4.55.07,6.79.22Z"/>
    </g>
</svg>

